Fita_Poluustav.ufo
<glyph name="greater" format="1">
  <advance width="889"/>
  <unicode hex="0021"/>
  <outline>
    <contour>
      <point x="455" y="252" type="line"/>
      <point x="291" y="252"/>
      <point x="289" y="96" type="qcurve" smooth="yes"/>
      <point x="287" y="-57"/>
      <point x="448" y="-55" type="qcurve"/>
      <point x="610" y="-51"/>
      <point x="612" y="96" type="qcurve"/>
      <point x="608" y="250"/>
      <point x="455" y="252" type="qcurve"/>
    </contour>
    <contour>
      <point x="571" y="1456" type="line"/>
      <point x="555" y="1456"/>
      <point x="494" y="1444" type="qcurve" smooth="yes"/>
      <point x="432" y="1431"/>
      <point x="326" y="1411" type="qcurve"/>
      <point x="299" y="1407"/>
      <point x="299" y="1358" type="qcurve"/>
      <point x="301" y="1286"/>
      <point x="326" y="1073" type="qcurve"/>
      <point x="348" y="860"/>
      <point x="350" y="739" type="qcurve" smooth="yes"/>
      <point x="350" y="692"/>
      <point x="342" y="618" type="qcurve" smooth="yes"/>
      <point x="334" y="541"/>
      <point x="334" y="479" type="qcurve" smooth="yes"/>
      <point x="334" y="416"/>
      <point x="350" y="416" type="qcurve" smooth="yes"/>
      <point x="405" y="416"/>
      <point x="551" y="426" type="qcurve"/>
      <point x="573" y="426"/>
      <point x="582" y="448" type="qcurve"/>
      <point x="606" y="532"/>
      <point x="614" y="725" type="qcurve"/>
      <point x="623" y="915"/>
      <point x="623" y="1284" type="qcurve" smooth="yes"/>
      <point x="623" y="1343"/>
      <point x="616" y="1399" type="qcurve"/>
      <point x="604" y="1454"/>
      <point x="571" y="1456" type="qcurve"/>
    </contour>
  </outline>
</glyph>
<glyph name="B" format="1">
  <advance width="1937"/>
  <unicode hex="0025"/>
  <outline>
    <contour>
      <point x="1520" y="1055" type="line"/>
      <point x="1333" y="997"/>
      <point x="1204" y="895" type="qcurve"/>
      <point x="1071" y="793"/>
      <point x="1069" y="596" type="qcurve" smooth="yes"/>
      <point x="1069" y="530"/>
      <point x="1139" y="405" type="qcurve"/>
      <point x="1173" y="348"/>
      <point x="1218" y="309" type="qcurve"/>
      <point x="1264" y="266"/>
      <point x="1319" y="266" type="qcurve" smooth="yes"/>
      <point x="1354" y="266"/>
      <point x="1397" y="283" type="qcurve" smooth="yes"/>
      <point x="1577" y="356" type="line"/>
      <point x="1694" y="408"/>
      <point x="1749" y="508" type="qcurve" smooth="yes"/>
      <point x="1804" y="606"/>
      <point x="1804" y="725" type="qcurve"/>
      <point x="1798" y="1012"/>
      <point x="1520" y="1055" type="qcurve"/>
    </contour>
    <contour>
      <point x="1501" y="412" type="line"/>
      <point x="1405" y="412"/>
      <point x="1331" y="496" type="qcurve"/>
      <point x="1251" y="577"/>
      <point x="1249" y="715" type="qcurve"/>
      <point x="1249" y="788"/>
      <point x="1274" y="848" type="qcurve"/>
      <point x="1296" y="907"/>
      <point x="1347" y="909" type="qcurve"/>
      <point x="1603" y="905"/>
      <point x="1608" y="577" type="qcurve" smooth="yes"/>
      <point x="1608" y="518"/>
      <point x="1583" y="469" type="qcurve" smooth="yes"/>
      <point x="1556" y="414"/>
      <point x="1501" y="412" type="qcurve"/>
    </contour>
    <contour>
      <point x="584" y="1667" type="line"/>
      <point x="397" y="1610"/>
      <point x="268" y="1507" type="qcurve"/>
      <point x="135" y="1405"/>
      <point x="133" y="1208" type="qcurve" smooth="yes"/>
      <point x="133" y="1143"/>
      <point x="203" y="1018" type="qcurve"/>
      <point x="238" y="960"/>
      <point x="283" y="922" type="qcurve"/>
      <point x="328" y="879"/>
      <point x="383" y="879" type="qcurve" smooth="yes"/>
      <point x="418" y="879"/>
      <point x="461" y="895" type="qcurve"/>
      <point x="641" y="969" type="line"/>
      <point x="758" y="1020"/>
      <point x="813" y="1120" type="qcurve" smooth="yes"/>
      <point x="868" y="1218"/>
      <point x="868" y="1337" type="qcurve"/>
      <point x="862" y="1624"/>
      <point x="584" y="1667" type="qcurve"/>
    </contour>
    <contour>
      <point x="565" y="1024" type="line"/>
      <point x="469" y="1024"/>
      <point x="395" y="1108" type="qcurve"/>
      <point x="315" y="1190"/>
      <point x="313" y="1327" type="qcurve"/>
      <point x="313" y="1401"/>
      <point x="338" y="1460" type="qcurve"/>
      <point x="360" y="1520"/>
      <point x="412" y="1522" type="qcurve"/>
      <point x="668" y="1517"/>
      <point x="672" y="1190" type="qcurve" smooth="yes"/>
      <point x="672" y="1130"/>
      <point x="647" y="1081" type="qcurve" smooth="yes"/>
      <point x="620" y="1026"/>
      <point x="565" y="1024" type="qcurve"/>
    </contour>
    <contour>
      <point x="1401" y="1704" type="line"/>
      <point x="1339" y="1726"/>
      <point x="1300" y="1773" type="qcurve"/>
      <point x="1255" y="1745" type="line"/>
      <point x="1180" y="1585"/>
      <point x="1012" y="1200" type="qcurve" smooth="yes"/>
      <point x="844" y="815"/>
      <point x="422" y="27" type="qcurve"/>
      <point x="457" y="12" type="line"/>
      <point x="551" y="59" type="line"/>
      <point x="1407" y="1687" type="line"/>
    </contour>
  </outline>
</glyph>
<glyph name="E" format="1">
  <advance width="801"/>
  <unicode hex="0028"/>
  <outline>
    <contour>
      <point x="612" y="1704" type="line"/>
      <point x="446" y="1474"/>
      <point x="297" y="1132" type="qcurve"/>
      <point x="139" y="788"/>
      <point x="135" y="518" type="qcurve"/>
      <point x="135" y="383"/>
      <point x="236" y="147" type="qcurve"/>
      <point x="334" y="-88"/>
      <point x="496" y="-330" type="qcurve"/>
      <point x="496" y="-330" type="line"/>
      <point x="547" y="-295" type="line"/>
      <point x="446" y="137" type="line"/>
      <point x="401" y="342"/>
      <point x="401" y="563" type="qcurve"/>
      <point x="403" y="866"/>
      <point x="487" y="1126" type="qcurve"/>
      <point x="567" y="1384"/>
      <point x="696" y="1712" type="qcurve"/>
    </contour>
  </outline>
</glyph>
<glyph name="F" format="1">
  <advance width="801"/>
  <unicode hex="0029"/>
  <outline>
    <contour>
      <point x="377" y="1704" type="line"/>
      <point x="326" y="1669" type="line"/>
      <point x="426" y="1237" type="line"/>
      <point x="471" y="1032"/>
      <point x="471" y="811" type="qcurve"/>
      <point x="469" y="510"/>
      <point x="389" y="252" type="qcurve"/>
      <point x="307" y="-6"/>
      <point x="176" y="-338" type="qcurve"/>
      <point x="260" y="-330" type="line"/>
      <point x="428" y="-98"/>
      <point x="580" y="246" type="qcurve" smooth="yes"/>
      <point x="731" y="588"/>
      <point x="737" y="856" type="qcurve"/>
      <point x="735" y="993"/>
      <point x="637" y="1229" type="qcurve" smooth="yes"/>
      <point x="539" y="1464"/>
      <point x="377" y="1704" type="qcurve"/>
    </contour>
  </outline>
</glyph>
<glyph name="M" format="1">
  <advance width="1327"/>
  <unicode hex="0030"/>
  <outline>
    <contour>
      <point x="795" y="1464" type="line"/>
      <point x="522" y="1356"/>
      <point x="336" y="1157" type="qcurve"/>
      <point x="143" y="956"/>
      <point x="139" y="580" type="qcurve"/>
      <point x="139" y="455"/>
      <point x="240" y="215" type="qcurve"/>
      <point x="287" y="106"/>
      <point x="354" y="29" type="qcurve"/>
      <point x="420" y="-51"/>
      <point x="502" y="-53" type="qcurve"/>
      <point x="553" y="-53"/>
      <point x="614" y="-23" type="qcurve"/>
      <point x="879" y="119" type="line"/>
      <point x="1044" y="213"/>
      <point x="1128" y="403" type="qcurve"/>
      <point x="1208" y="592"/>
      <point x="1208" y="827" type="qcurve"/>
      <point x="1198" y="1378"/>
      <point x="795" y="1464" type="qcurve"/>
    </contour>
    <contour>
      <point x="768" y="225" type="line"/>
      <point x="629" y="227"/>
      <point x="518" y="387" type="qcurve"/>
      <point x="403" y="545"/>
      <point x="401" y="809" type="qcurve"/>
      <point x="401" y="950"/>
      <point x="434" y="1065" type="qcurve"/>
      <point x="453" y="1122"/>
      <point x="479" y="1153" type="qcurve" smooth="yes"/>
      <point x="506" y="1184"/>
      <point x="543" y="1184" type="qcurve"/>
      <point x="915" y="1173"/>
      <point x="922" y="545" type="qcurve"/>
      <point x="922" y="434"/>
      <point x="885" y="334" type="qcurve"/>
      <point x="866" y="287"/>
      <point x="840" y="258" type="qcurve" smooth="yes"/>
      <point x="809" y="225"/>
      <point x="768" y="225" type="qcurve"/>
    </contour>
  </outline>
</glyph>
<glyph name="O" format="1">
  <advance width="1530"/>
  <unicode hex="0032"/>
  <outline>
    <contour>
      <point x="82" y="-367" type="line"/>
      <point x="117" y="-432" type="line"/>
      <point x="117" y="-432" type="line"/>
      <point x="164" y="-401"/>
      <point x="227" y="-385" type="qcurve"/>
      <point x="258" y="-375"/>
      <point x="287" y="-373" type="qcurve" smooth="yes"/>
      <point x="313" y="-371"/>
      <point x="332" y="-371" type="qcurve" smooth="yes"/>
      <point x="393" y="-371"/>
      <point x="477" y="-434" type="qcurve" smooth="yes"/>
      <point x="561" y="-496"/>
      <point x="655" y="-577" type="qcurve"/>
      <point x="752" y="-657"/>
      <point x="844" y="-719" type="qcurve" smooth="yes"/>
      <point x="889" y="-749"/>
      <point x="932" y="-766" type="qcurve"/>
      <point x="973" y="-784"/>
      <point x="1010" y="-786" type="qcurve"/>
      <point x="1128" y="-784"/>
      <point x="1259" y="-688" type="qcurve"/>
      <point x="1388" y="-596"/>
      <point x="1460" y="-446" type="qcurve"/>
      <point x="1384" y="-381" type="line"/>
      <point x="1384" y="-381" type="line"/>
      <point x="1358" y="-444"/>
      <point x="1323" y="-483" type="qcurve" smooth="yes"/>
      <point x="1286" y="-524"/>
      <point x="1247" y="-526" type="qcurve"/>
      <point x="1200" y="-524"/>
      <point x="1116" y="-469" type="qcurve"/>
      <point x="1030" y="-416"/>
      <point x="922" y="-346" type="qcurve"/>
      <point x="813" y="-274"/>
      <point x="696" y="-223" type="qcurve" smooth="yes"/>
      <point x="575" y="-170"/>
      <point x="457" y="-170" type="qcurve"/>
      <point x="786" y="-20"/>
      <point x="973" y="90" type="qcurve" smooth="yes"/>
      <point x="1161" y="201"/>
      <point x="1247" y="283" type="qcurve"/>
      <point x="1333" y="367"/>
      <point x="1356" y="430" type="qcurve"/>
      <point x="1376" y="494"/>
      <point x="1374" y="545" type="qcurve"/>
      <point x="1378" y="1030"/>
      <point x="846" y="1024" type="qcurve"/>
      <point x="526" y="1028"/>
      <point x="330" y="919" type="qcurve"/>
      <point x="236" y="860"/>
      <point x="182" y="750" type="qcurve" smooth="yes"/>
      <point x="127" y="637"/>
      <point x="127" y="457" type="qcurve"/>
      <point x="166" y="424" type="line"/>
      <point x="166" y="424" type="line"/>
      <point x="451" y="506" type="line"/>
      <point x="434" y="592"/>
      <point x="434" y="661" type="qcurve"/>
      <point x="432" y="788"/>
      <point x="506" y="852" type="qcurve"/>
      <point x="582" y="915"/>
      <point x="760" y="915" type="qcurve"/>
      <point x="868" y="913"/>
      <point x="942" y="821" type="qcurve" smooth="yes"/>
      <point x="1018" y="727"/>
      <point x="1020" y="573" type="qcurve"/>
      <point x="1018" y="395"/>
      <point x="917" y="279" type="qcurve"/>
      <point x="819" y="160"/>
      <point x="668" y="68" type="qcurve" smooth="yes"/>
      <point x="518" y="-23"/>
      <point x="360" y="-121" type="qcurve"/>
      <point x="203" y="-221"/>
      <point x="82" y="-367" type="qcurve"/>
    </contour>
  </outline>
</glyph>
<glyph name="P" format="1">
  <advance width="1577"/>
  <unicode hex="0033"/>
  <outline>
    <contour>
      <point x="49" y="-352" type="line"/>
      <point x="51" y="-352" type="line"/>
      <point x="96" y="-422" type="line"/>
      <point x="96" y="-422" type="line"/>
      <point x="217" y="-299"/>
      <point x="358" y="-297" type="qcurve" smooth="yes"/>
      <point x="405" y="-297"/>
      <point x="465" y="-324" type="qcurve"/>
      <point x="524" y="-352"/>
      <point x="592" y="-387" type="qcurve" smooth="yes"/>
      <point x="661" y="-422"/>
      <point x="735" y="-448" type="qcurve"/>
      <point x="809" y="-477"/>
      <point x="885" y="-479" type="qcurve"/>
      <point x="977" y="-477"/>
      <point x="1053" y="-436" type="qcurve" smooth="yes"/>
      <point x="1126" y="-397"/>
      <point x="1192" y="-338" type="qcurve"/>
      <point x="1259" y="-281"/>
      <point x="1329" y="-197" type="qcurve"/>
      <point x="1399" y="-115"/>
      <point x="1401" y="-20" type="qcurve"/>
      <point x="1397" y="168"/>
      <point x="1276" y="281" type="qcurve" smooth="yes"/>
      <point x="1157" y="393"/>
      <point x="999" y="395" type="qcurve" smooth="yes"/>
      <point x="967" y="395"/>
      <point x="932" y="389" type="qcurve"/>
      <point x="932" y="416" type="line"/>
      <point x="1438" y="987" type="line"/>
      <point x="1423" y="1020" type="line"/>
      <point x="1343" y="1014"/>
      <point x="1163" y="1014" type="qcurve"/>
      <point x="938" y="1018"/>
      <point x="643" y="1020" type="qcurve"/>
      <point x="491" y="1020"/>
      <point x="405" y="967" type="qcurve"/>
      <point x="315" y="909"/>
      <point x="315" y="786" type="qcurve" smooth="yes"/>
      <point x="315" y="737"/>
      <point x="338" y="670" type="qcurve"/>
      <point x="358" y="602"/>
      <point x="371" y="518" type="qcurve"/>
      <point x="434" y="498" type="line"/>
      <point x="440" y="668"/>
      <point x="506" y="725" type="qcurve" smooth="yes"/>
      <point x="569" y="780"/>
      <point x="711" y="778" type="qcurve"/>
      <point x="997" y="778" type="line"/>
      <point x="975" y="653"/>
      <point x="885" y="537" type="qcurve"/>
      <point x="790" y="422"/>
      <point x="565" y="348" type="qcurve"/>
      <point x="623" y="272" type="line"/>
      <point x="678" y="289"/>
      <point x="756" y="289" type="qcurve" smooth="yes"/>
      <point x="852" y="289"/>
      <point x="944" y="156" type="qcurve"/>
      <point x="1038" y="23"/>
      <point x="1042" y="-227" type="qcurve"/>
      <point x="1040" y="-256"/>
      <point x="1030" y="-264" type="qcurve"/>
      <point x="1018" y="-272"/>
      <point x="1003" y="-272" type="qcurve" smooth="yes"/>
      <point x="960" y="-270"/>
      <point x="895" y="-242" type="qcurve" smooth="yes"/>
      <point x="827" y="-213"/>
      <point x="745" y="-178" type="qcurve"/>
      <point x="668" y="-139"/>
      <point x="586" y="-111" type="qcurve" smooth="yes"/>
      <point x="506" y="-84"/>
      <point x="434" y="-84" type="qcurve"/>
      <point x="367" y="-86"/>
      <point x="256" y="-176" type="qcurve"/>
      <point x="143" y="-266"/>
      <point x="49" y="-352" type="qcurve"/>
    </contour>
  </outline>
</glyph>
<glyph name="T" format="1">
  <advance width="1429"/>
  <unicode hex="0037"/>
  <outline>
    <contour>
      <point x="395" y="403" type="line"/>
      <point x="401" y="475"/>
      <point x="416" y="539" type="qcurve"/>
      <point x="428" y="602"/>
      <point x="457" y="651" type="qcurve" smooth="yes"/>
      <point x="487" y="702"/>
      <point x="543" y="731" type="qcurve"/>
      <point x="596" y="760"/>
      <point x="678" y="760" type="qcurve" smooth="yes"/>
      <point x="965" y="760" type="line"/>
      <point x="262" y="-172" type="line" smooth="yes"/>
      <point x="197" y="-258"/>
      <point x="170" y="-315" type="qcurve"/>
      <point x="141" y="-371"/>
      <point x="141" y="-416" type="qcurve" smooth="yes"/>
      <point x="141" y="-455"/>
      <point x="205" y="-453" type="qcurve"/>
      <point x="590" y="-453" type="line"/>
      <point x="594" y="-125"/>
      <point x="690" y="88" type="qcurve"/>
      <point x="731" y="192"/>
      <point x="770" y="258" type="qcurve"/>
      <point x="788" y="293"/>
      <point x="803" y="313" type="qcurve"/>
      <point x="817" y="336"/>
      <point x="823" y="344" type="qcurve" smooth="yes"/>
      <point x="1186" y="782"/>
      <point x="1405" y="969" type="qcurve"/>
      <point x="1390" y="1001" type="line"/>
      <point x="584" y="1001" type="line" smooth="yes"/>
      <point x="479" y="1001"/>
      <point x="385" y="954" type="qcurve"/>
      <point x="342" y="930"/>
      <point x="313" y="885" type="qcurve" smooth="yes"/>
      <point x="283" y="840"/>
      <point x="283" y="772" type="qcurve"/>
      <point x="285" y="700"/>
      <point x="315" y="614" type="qcurve"/>
      <point x="342" y="528"/>
      <point x="344" y="438" type="qcurve" smooth="yes"/>
      <point x="344" y="412"/>
      <point x="338" y="389" type="qcurve"/>
    </contour>
  </outline>
</glyph>
<glyph name="V" format="1">
  <advance width="1464"/>
  <unicode hex="0039"/>
  <outline>
    <contour>
      <point x="184" y="-561" type="line"/>
      <point x="184" y="-561" type="line"/>
      <point x="563" y="-342" type="line"/>
      <point x="844" y="-178"/>
      <point x="1005" y="-47" type="qcurve" smooth="yes"/>
      <point x="1165" y="82"/>
      <point x="1243" y="182" type="qcurve"/>
      <point x="1321" y="285"/>
      <point x="1341" y="360" type="qcurve"/>
      <point x="1358" y="434"/>
      <point x="1358" y="485" type="qcurve" smooth="yes"/>
      <point x="1364" y="991"/>
      <point x="827" y="993" type="qcurve" smooth="yes"/>
      <point x="557" y="995"/>
      <point x="346" y="883" type="qcurve"/>
      <point x="244" y="821"/>
      <point x="184" y="717" type="qcurve"/>
      <point x="121" y="610"/>
      <point x="121" y="453" type="qcurve"/>
      <point x="123" y="285"/>
      <point x="244" y="147" type="qcurve" smooth="yes"/>
      <point x="301" y="82"/>
      <point x="369" y="43" type="qcurve"/>
      <point x="434" y="0"/>
      <point x="504" y="0" type="qcurve"/>
      <point x="586" y="2"/>
      <point x="664" y="74" type="qcurve"/>
      <point x="739" y="139"/>
      <point x="799" y="217" type="qcurve"/>
      <point x="770" y="268" type="line"/>
      <point x="618" y="301"/>
      <point x="520" y="383" type="qcurve"/>
      <point x="418" y="465"/>
      <point x="416" y="610" type="qcurve" smooth="yes"/>
      <point x="414" y="723"/>
      <point x="481" y="803" type="qcurve"/>
      <point x="518" y="840"/>
      <point x="582" y="862" type="qcurve"/>
      <point x="645" y="885"/>
      <point x="741" y="885" type="qcurve"/>
      <point x="850" y="883"/>
      <point x="924" y="790" type="qcurve" smooth="yes"/>
      <point x="999" y="696"/>
      <point x="1001" y="543" type="qcurve"/>
      <point x="995" y="186"/>
      <point x="752" y="-35" type="qcurve" smooth="yes"/>
      <point x="510" y="-256"/>
      <point x="147" y="-451" type="qcurve"/>
    </contour>
  </outline>
</glyph>
<glyph name="Z" format="1">
  <advance width="1110"/>
  <unicode hex="003D"/>
  <outline>
    <contour>
      <point x="174" y="270" type="line"/>
      <point x="231" y="256"/>
      <point x="397" y="258" type="qcurve" smooth="yes"/>
      <point x="616" y="260"/>
      <point x="764" y="262" type="qcurve" smooth="yes"/>
      <point x="782" y="262"/>
      <point x="803" y="285" type="qcurve"/>
      <point x="821" y="303"/>
      <point x="838" y="332" type="qcurve" smooth="yes"/>
      <point x="872" y="393"/>
      <point x="874" y="444" type="qcurve"/>
      <point x="874" y="477"/>
      <point x="848" y="479" type="qcurve"/>
      <point x="551" y="481"/>
      <point x="324" y="483" type="qcurve" smooth="yes"/>
      <point x="303" y="483"/>
      <point x="272" y="471" type="qcurve"/>
      <point x="242" y="455"/>
      <point x="229" y="430" type="qcurve"/>
    </contour>
    <contour>
      <point x="236" y="604" type="line"/>
      <point x="293" y="590"/>
      <point x="459" y="592" type="qcurve" smooth="yes"/>
      <point x="678" y="594"/>
      <point x="825" y="596" type="qcurve" smooth="yes"/>
      <point x="844" y="596"/>
      <point x="864" y="618" type="qcurve"/>
      <point x="883" y="637"/>
      <point x="899" y="666" type="qcurve" smooth="yes"/>
      <point x="934" y="727"/>
      <point x="936" y="778" type="qcurve"/>
      <point x="936" y="811"/>
      <point x="909" y="813" type="qcurve"/>
      <point x="612" y="815"/>
      <point x="385" y="817" type="qcurve" smooth="yes"/>
      <point x="365" y="817"/>
      <point x="334" y="805" type="qcurve"/>
      <point x="303" y="788"/>
      <point x="291" y="764" type="qcurve"/>
    </contour>
  </outline>
</glyph>
<glyph name="asciicircum" format="1">
  <advance width="1259"/>
  <unicode hex="0041"/>
  <outline>
    <contour>
      <point x="391" y="1390" type="line"/>
      <point x="410" y="1378"/>
      <point x="428" y="1343" type="qcurve"/>
      <point x="442" y="1309"/>
      <point x="455" y="1261" type="qcurve" smooth="yes"/>
      <point x="481" y="1163"/>
      <point x="481" y="1087" type="qcurve"/>
      <point x="479" y="1036"/>
      <point x="438" y="948" type="qcurve" smooth="yes"/>
      <point x="397" y="858"/>
      <point x="336" y="752" type="qcurve"/>
      <point x="279" y="649"/>
      <point x="227" y="551" type="qcurve"/>
      <point x="176" y="451"/>
      <point x="160" y="379" type="qcurve"/>
      <point x="152" y="338"/>
      <point x="147" y="311" type="qcurve" smooth="yes"/>
      <point x="141" y="283"/>
      <point x="141" y="221" type="qcurve" smooth="yes"/>
      <point x="141" y="115"/>
      <point x="176" y="55" type="qcurve"/>
      <point x="209" y="-6"/>
      <point x="252" y="-8" type="qcurve"/>
      <point x="313" y="-8"/>
      <point x="365" y="39" type="qcurve" smooth="yes"/>
      <point x="414" y="82"/>
      <point x="457" y="160" type="qcurve" smooth="yes"/>
      <point x="543" y="317"/>
      <point x="633" y="534" type="qcurve"/>
      <point x="633" y="534" type="line"/>
      <point x="764" y="47" type="line"/>
      <point x="774" y="20"/>
      <point x="807" y="8" type="qcurve"/>
      <point x="836" y="-8"/>
      <point x="868" y="-8" type="qcurve"/>
      <point x="905" y="-6"/>
      <point x="989" y="6" type="qcurve"/>
      <point x="1071" y="16"/>
      <point x="1102" y="27" type="qcurve"/>
      <point x="1139" y="45"/>
      <point x="1139" y="80" type="qcurve" smooth="yes"/>
      <point x="1139" y="115"/>
      <point x="1116" y="166" type="qcurve" smooth="yes"/>
      <point x="1094" y="217"/>
      <point x="1063" y="293" type="qcurve"/>
      <point x="874" y="801"/>
      <point x="819" y="1245" type="qcurve"/>
      <point x="811" y="1327"/>
      <point x="790" y="1382" type="qcurve"/>
      <point x="768" y="1433"/>
      <point x="719" y="1436" type="qcurve"/>
      <point x="410" y="1436" type="line"/>
    </contour>
    <contour>
      <point x="547" y="883" type="line"/>
      <point x="569" y="833"/>
      <point x="584" y="784" type="qcurve" smooth="yes"/>
      <point x="598" y="735"/>
      <point x="598" y="690" type="qcurve"/>
      <point x="596" y="610"/>
      <point x="547" y="512" type="qcurve"/>
      <point x="522" y="467"/>
      <point x="494" y="438" type="qcurve" smooth="yes"/>
      <point x="463" y="405"/>
      <point x="430" y="405" type="qcurve"/>
      <point x="414" y="408"/>
      <point x="414" y="475" type="qcurve" smooth="yes"/>
      <point x="414" y="590"/>
      <point x="453" y="731" type="qcurve" smooth="yes"/>
      <point x="471" y="799"/>
      <point x="496" y="840" type="qcurve"/>
      <point x="518" y="881"/>
      <point x="547" y="883" type="qcurve"/>
    </contour>
  </outline>
</glyph>
<glyph name="d" format="1">
  <advance width="1882"/>
  <unicode hex="0047"/>
  <outline>
    <contour>
      <point x="1161" y="291" type="line"/>
      <point x="1163" y="111"/>
      <point x="1186" y="-59" type="qcurve"/>
      <point x="1206" y="-227"/>
      <point x="1208" y="-268" type="qcurve"/>
      <point x="1204" y="-416"/>
      <point x="1130" y="-534" type="qcurve" smooth="yes"/>
      <point x="1096" y="-590"/>
      <point x="1061" y="-625" type="qcurve" smooth="yes"/>
      <point x="1026" y="-659"/>
      <point x="1001" y="-661" type="qcurve"/>
      <point x="956" y="-659"/>
      <point x="885" y="-606" type="qcurve"/>
      <point x="815" y="-557"/>
      <point x="725" y="-491" type="qcurve"/>
      <point x="637" y="-424"/>
      <point x="534" y="-375" type="qcurve"/>
      <point x="430" y="-324"/>
      <point x="319" y="-324" type="qcurve"/>
      <point x="238" y="-326"/>
      <point x="139" y="-391" type="qcurve" smooth="yes"/>
      <point x="39" y="-457"/>
      <point x="-18" y="-528" type="qcurve"/>
      <point x="6" y="-573" type="line"/>
      <point x="6" y="-573" type="line"/>
      <point x="29" y="-559"/>
      <point x="55" y="-547" type="qcurve" smooth="yes"/>
      <point x="84" y="-534"/>
      <point x="115" y="-528" type="qcurve"/>
      <point x="145" y="-518"/>
      <point x="174" y="-516" type="qcurve" smooth="yes"/>
      <point x="199" y="-514"/>
      <point x="217" y="-514" type="qcurve" smooth="yes"/>
      <point x="274" y="-514"/>
      <point x="342" y="-575" type="qcurve" smooth="yes"/>
      <point x="408" y="-633"/>
      <point x="479" y="-711" type="qcurve"/>
      <point x="551" y="-786"/>
      <point x="625" y="-846" type="qcurve"/>
      <point x="661" y="-872"/>
      <point x="698" y="-889" type="qcurve" smooth="yes"/>
      <point x="735" y="-907"/>
      <point x="770" y="-909" type="qcurve"/>
      <point x="821" y="-907"/>
      <point x="901" y="-879" type="qcurve" smooth="yes"/>
      <point x="981" y="-852"/>
      <point x="1051" y="-809" type="qcurve" smooth="yes"/>
      <point x="1364" y="-616" type="line"/>
      <point x="1413" y="-584"/>
      <point x="1448" y="-518" type="qcurve" smooth="yes"/>
      <point x="1483" y="-453"/>
      <point x="1503" y="-377" type="qcurve" smooth="yes"/>
      <point x="1544" y="-215"/>
      <point x="1544" y="-139" type="qcurve" smooth="yes"/>
      <point x="1546" y="281"/>
      <point x="1581" y="541" type="qcurve"/>
      <point x="1597" y="670"/>
      <point x="1608" y="747" type="qcurve" smooth="yes"/>
      <point x="1618" y="823"/>
      <point x="1618" y="842" type="qcurve" smooth="yes"/>
      <point x="1618" y="911"/>
      <point x="1552" y="909" type="qcurve" smooth="yes"/>
      <point x="1526" y="909"/>
      <point x="1497" y="899" type="qcurve"/>
      <point x="1466" y="885"/>
      <point x="1429" y="850" type="qcurve" smooth="yes"/>
      <point x="1368" y="790"/>
      <point x="1302" y="698" type="qcurve"/>
      <point x="1239" y="608"/>
      <point x="1171" y="516" type="qcurve"/>
      <point x="1104" y="428"/>
      <point x="1034" y="367" type="qcurve" smooth="yes"/>
      <point x="960" y="303"/>
      <point x="885" y="303" type="qcurve" smooth="yes"/>
      <point x="825" y="303"/>
      <point x="766" y="352" type="qcurve"/>
      <point x="707" y="399"/>
      <point x="657" y="471" type="qcurve" smooth="yes"/>
      <point x="551" y="627"/>
      <point x="549" y="793" type="qcurve" smooth="yes"/>
      <point x="549" y="860"/>
      <point x="557" y="938" type="qcurve" smooth="yes"/>
      <point x="565" y="1016"/>
      <point x="592" y="1087" type="qcurve"/>
      <point x="618" y="1159"/>
      <point x="674" y="1204" type="qcurve" smooth="yes"/>
      <point x="729" y="1249"/>
      <point x="817" y="1249" type="qcurve" smooth="yes"/>
      <point x="881" y="1249"/>
      <point x="948" y="1216" type="qcurve" smooth="yes"/>
      <point x="1014" y="1184"/>
      <point x="1079" y="1139" type="qcurve" smooth="yes"/>
      <point x="1145" y="1094"/>
      <point x="1200" y="1061" type="qcurve"/>
      <point x="1253" y="1024"/>
      <point x="1294" y="1024" type="qcurve" smooth="yes"/>
      <point x="1356" y="1024"/>
      <point x="1513" y="1044" type="qcurve"/>
      <point x="1585" y="1057"/>
      <point x="1636" y="1073" type="qcurve"/>
      <point x="1661" y="1083"/>
      <point x="1675" y="1092" type="qcurve"/>
      <point x="1687" y="1102"/>
      <point x="1687" y="1110" type="qcurve"/>
      <point x="1696" y="1110"/>
      <point x="1331" y="1360" type="qcurve"/>
      <point x="1247" y="1433"/>
      <point x="1175" y="1452" type="qcurve"/>
      <point x="1102" y="1468"/>
      <point x="1026" y="1466" type="qcurve" smooth="yes"/>
      <point x="704" y="1458"/>
      <point x="471" y="1194" type="qcurve"/>
      <point x="229" y="934"/>
      <point x="225" y="608" type="qcurve"/>
      <point x="227" y="432"/>
      <point x="367" y="223" type="qcurve" smooth="yes"/>
      <point x="432" y="125"/>
      <point x="512" y="61" type="qcurve" smooth="yes"/>
      <point x="594" y="-4"/>
      <point x="680" y="-6" type="qcurve"/>
      <point x="745" y="-4"/>
      <point x="817" y="29" type="qcurve" smooth="yes"/>
      <point x="887" y="61"/>
      <point x="948" y="109" type="qcurve" smooth="yes"/>
      <point x="1079" y="211"/>
      <point x="1135" y="293" type="qcurve"/>
    </contour>
  </outline>
</glyph>
<glyph name="n" format="1">
  <advance width="1520"/>
  <unicode hex="0051"/>
  <outline>
    <contour>
      <point x="926" y="182" type="line"/>
      <point x="993" y="238"/>
      <point x="1096" y="313" type="qcurve"/>
      <point x="1143" y="352"/>
      <point x="1182" y="389" type="qcurve" smooth="yes"/>
      <point x="1221" y="426"/>
      <point x="1237" y="457" type="qcurve"/>
      <point x="1321" y="637"/>
      <point x="1317" y="860" type="qcurve" smooth="yes"/>
      <point x="1307" y="1417"/>
      <point x="854" y="1501" type="qcurve"/>
      <point x="854" y="1501" type="line"/>
      <point x="549" y="1390"/>
      <point x="340" y="1192" type="qcurve"/>
      <point x="123" y="991"/>
      <point x="119" y="610" type="qcurve"/>
      <point x="119" y="485"/>
      <point x="231" y="244" type="qcurve"/>
      <point x="285" y="133"/>
      <point x="358" y="55" type="qcurve" smooth="yes"/>
      <point x="432" y="-25"/>
      <point x="524" y="-27" type="qcurve"/>
      <point x="555" y="-25"/>
      <point x="596" y="-10" type="qcurve" smooth="yes"/>
      <point x="637" y="4"/>
      <point x="678" y="6" type="qcurve"/>
      <point x="756" y="4"/>
      <point x="795" y="-66" type="qcurve"/>
      <point x="815" y="-96"/>
      <point x="836" y="-135" type="qcurve"/>
      <point x="854" y="-172"/>
      <point x="879" y="-207" type="qcurve"/>
      <point x="930" y="-266"/>
      <point x="991" y="-307" type="qcurve" smooth="yes"/>
      <point x="1053" y="-348"/>
      <point x="1118" y="-350" type="qcurve"/>
      <point x="1227" y="-348"/>
      <point x="1327" y="-303" type="qcurve" smooth="yes"/>
      <point x="1376" y="-281"/>
      <point x="1413" y="-256" type="qcurve"/>
      <point x="1448" y="-231"/>
      <point x="1460" y="-203" type="qcurve"/>
      <point x="1407" y="-141" type="line"/>
      <point x="1407" y="-141" type="line"/>
      <point x="1382" y="-174"/>
      <point x="1362" y="-186" type="qcurve" smooth="yes"/>
      <point x="1341" y="-199"/>
      <point x="1313" y="-199" type="qcurve" smooth="yes"/>
      <point x="1255" y="-197"/>
      <point x="1208" y="-127" type="qcurve" smooth="yes"/>
      <point x="1184" y="-92"/>
      <point x="1151" y="-47" type="qcurve" smooth="yes"/>
      <point x="1118" y="-2"/>
      <point x="1073" y="53" type="qcurve"/>
      <point x="1030" y="111"/>
      <point x="1001" y="139" type="qcurve" smooth="yes"/>
      <point x="971" y="168"/>
      <point x="926" y="182" type="qcurve"/>
    </contour>
    <contour>
      <point x="823" y="254" type="line"/>
      <point x="666" y="256"/>
      <point x="545" y="418" type="qcurve"/>
      <point x="418" y="575"/>
      <point x="414" y="842" type="qcurve"/>
      <point x="414" y="983"/>
      <point x="451" y="1098" type="qcurve" smooth="yes"/>
      <point x="469" y="1155"/>
      <point x="500" y="1186" type="qcurve"/>
      <point x="530" y="1218"/>
      <point x="571" y="1218" type="qcurve" smooth="yes"/>
      <point x="989" y="1208"/>
      <point x="995" y="575" type="qcurve"/>
      <point x="995" y="465"/>
      <point x="956" y="362" type="qcurve"/>
      <point x="936" y="315"/>
      <point x="903" y="287" type="qcurve"/>
      <point x="870" y="254"/>
      <point x="823" y="254" type="qcurve"/>
    </contour>
  </outline>
</glyph>
<glyph name="p" format="1">
  <advance width="1847"/>
  <unicode hex="0053"/>
  <outline>
    <contour>
      <point x="1235" y="1354" type="line"/>
      <point x="1233" y="1403"/>
      <point x="1155" y="1427" type="qcurve"/>
      <point x="1077" y="1448"/>
      <point x="954" y="1448" type="qcurve" smooth="yes"/>
      <point x="743" y="1448"/>
      <point x="537" y="1409" type="qcurve" smooth="yes"/>
      <point x="436" y="1390"/>
      <point x="365" y="1364" type="qcurve" smooth="yes"/>
      <point x="293" y="1337"/>
      <point x="262" y="1302" type="qcurve"/>
      <point x="197" y="1218"/>
      <point x="147" y="1065" type="qcurve"/>
      <point x="94" y="913"/>
      <point x="94" y="784" type="qcurve"/>
      <point x="96" y="659"/>
      <point x="174" y="604" type="qcurve"/>
      <point x="248" y="547"/>
      <point x="356" y="547" type="qcurve"/>
      <point x="440" y="545"/>
      <point x="577" y="588" type="qcurve"/>
      <point x="715" y="629"/>
      <point x="987" y="747" type="qcurve"/>
      <point x="1034" y="764"/>
      <point x="1073" y="764" type="qcurve" smooth="yes"/>
      <point x="1165" y="762"/>
      <point x="1229" y="694" type="qcurve"/>
      <point x="1290" y="627"/>
      <point x="1327" y="532" type="qcurve"/>
      <point x="1366" y="440"/>
      <point x="1384" y="360" type="qcurve"/>
      <point x="1399" y="281"/>
      <point x="1399" y="254" type="qcurve" smooth="yes"/>
      <point x="1401" y="192"/>
      <point x="1360" y="192" type="qcurve"/>
      <point x="1296" y="195"/>
      <point x="1016" y="233" type="qcurve" smooth="yes"/>
      <point x="889" y="250"/>
      <point x="788" y="260" type="qcurve" smooth="yes"/>
      <point x="688" y="270"/>
      <point x="666" y="270" type="qcurve" smooth="yes"/>
      <point x="618" y="272"/>
      <point x="543" y="240" type="qcurve"/>
      <point x="113" y="41" type="line"/>
      <point x="137" y="-27" type="line"/>
      <point x="174" y="-16"/>
      <point x="227" y="4" type="qcurve" smooth="yes"/>
      <point x="279" y="23"/>
      <point x="334" y="45" type="qcurve"/>
      <point x="453" y="96"/>
      <point x="555" y="98" type="qcurve" smooth="yes"/>
      <point x="561" y="98"/>
      <point x="643" y="82" type="qcurve"/>
      <point x="723" y="63"/>
      <point x="840" y="37" type="qcurve"/>
      <point x="956" y="14"/>
      <point x="1069" y="-6" type="qcurve" smooth="yes"/>
      <point x="1180" y="-25"/>
      <point x="1245" y="-27" type="qcurve"/>
      <point x="1370" y="-27"/>
      <point x="1483" y="59" type="qcurve" smooth="yes"/>
      <point x="1517" y="86"/>
      <point x="1565" y="123" type="qcurve"/>
      <point x="1610" y="160"/>
      <point x="1653" y="207" type="qcurve"/>
      <point x="1698" y="254"/>
      <point x="1726" y="309" type="qcurve"/>
      <point x="1755" y="362"/>
      <point x="1755" y="420" type="qcurve" smooth="yes"/>
      <point x="1755" y="618"/>
      <point x="1655" y="760" type="qcurve" smooth="yes"/>
      <point x="1554" y="903"/>
      <point x="1347" y="907" type="qcurve"/>
      <point x="1274" y="907"/>
      <point x="1184" y="883" type="qcurve" smooth="yes"/>
      <point x="674" y="747" type="line" smooth="yes"/>
      <point x="653" y="741"/>
      <point x="633" y="741" type="qcurve" smooth="yes"/>
      <point x="569" y="741"/>
      <point x="524" y="790" type="qcurve"/>
      <point x="473" y="838"/>
      <point x="473" y="913" type="qcurve" smooth="yes"/>
      <point x="473" y="1079"/>
      <point x="565" y="1225" type="qcurve"/>
      <point x="655" y="1370"/>
      <point x="831" y="1374" type="qcurve"/>
      <point x="893" y="1372"/>
      <point x="922" y="1339" type="qcurve"/>
      <point x="948" y="1304"/>
      <point x="960" y="1255" type="qcurve"/>
      <point x="975" y="1143"/>
      <point x="987" y="1135" type="qcurve"/>
      <point x="1020" y="1151" type="line"/>
    </contour>
  </outline>
</glyph>
<glyph name="s" format="1">
  <advance width="1472"/>
  <unicode hex="0056"/>
  <outline>
    <contour>
      <point x="631" y="1431" type="line"/>
      <point x="285" y="1431" type="line"/>
      <point x="223" y="1333"/>
      <point x="172" y="1208" type="qcurve"/>
      <point x="119" y="1085"/>
      <point x="117" y="946" type="qcurve"/>
      <point x="119" y="807"/>
      <point x="184" y="643" type="qcurve"/>
      <point x="248" y="477"/>
      <point x="340" y="326" type="qcurve" smooth="yes"/>
      <point x="432" y="174"/>
      <point x="524" y="78" type="qcurve"/>
      <point x="569" y="33"/>
      <point x="606" y="4" type="qcurve" smooth="yes"/>
      <point x="643" y="-25"/>
      <point x="672" y="-25" type="qcurve" smooth="yes"/>
      <point x="805" y="-23"/>
      <point x="930" y="66" type="qcurve"/>
      <point x="1053" y="152"/>
      <point x="1149" y="297" type="qcurve"/>
      <point x="1354" y="600"/>
      <point x="1360" y="1018" type="qcurve"/>
      <point x="1356" y="1241"/>
      <point x="1266" y="1399" type="qcurve"/>
      <point x="983" y="1433" type="line"/>
      <point x="983" y="1433" type="line"/>
      <point x="864" y="1266" type="line"/>
      <point x="864" y="1223" type="line"/>
      <point x="985" y="1184"/>
      <point x="1024" y="1038" type="qcurve" smooth="yes"/>
      <point x="1063" y="891"/>
      <point x="1061" y="715" type="qcurve" smooth="yes"/>
      <point x="1059" y="508"/>
      <point x="999" y="360" type="qcurve" smooth="yes"/>
      <point x="971" y="289"/>
      <point x="940" y="246" type="qcurve"/>
      <point x="905" y="201"/>
      <point x="874" y="201" type="qcurve" smooth="yes"/>
      <point x="850" y="201"/>
      <point x="793" y="268" type="qcurve"/>
      <point x="735" y="334"/>
      <point x="668" y="442" type="qcurve"/>
      <point x="604" y="553"/>
      <point x="557" y="686" type="qcurve"/>
      <point x="506" y="817"/>
      <point x="506" y="954" type="qcurve"/>
      <point x="508" y="1024"/>
      <point x="557" y="1149" type="qcurve"/>
      <point x="604" y="1272"/>
      <point x="653" y="1378" type="qcurve"/>
    </contour>
  </outline>
</glyph>
<glyph name="Adieresis" format="1">
  <advance width="1114"/>
  <unicode hex="0062"/>
  <outline>
    <contour>
      <point x="293" y="1390" type="line"/>
      <point x="192" y="1001"/>
      <point x="164" y="756" type="qcurve"/>
      <point x="133" y="510"/>
      <point x="135" y="225" type="qcurve"/>
      <point x="135" y="61"/>
      <point x="141" y="-25" type="qcurve"/>
      <point x="661" y="-25" type="line"/>
      <point x="932" y="-2" type="line"/>
      <point x="950" y="2"/>
      <point x="960" y="23" type="qcurve"/>
      <point x="967" y="41"/>
      <point x="967" y="51" type="qcurve"/>
      <point x="946" y="209"/>
      <point x="946" y="457" type="qcurve" smooth="yes"/>
      <point x="946" y="627"/>
      <point x="967" y="784" type="qcurve" smooth="yes"/>
      <point x="977" y="860"/>
      <point x="983" y="907" type="qcurve"/>
      <point x="987" y="956"/>
      <point x="987" y="960" type="qcurve" smooth="yes"/>
      <point x="989" y="991"/>
      <point x="954" y="993" type="qcurve"/>
      <point x="713" y="987"/>
      <point x="475" y="887" type="qcurve"/>
      <point x="475" y="887" type="line"/>
      <point x="500" y="1157"/>
      <point x="586" y="1368" type="qcurve" smooth="yes"/>
      <point x="592" y="1384"/>
      <point x="592" y="1401" type="qcurve" smooth="yes"/>
      <point x="592" y="1427"/>
      <point x="571" y="1429" type="qcurve"/>
      <point x="518" y="1425" type="line"/>
      <point x="463" y="1417"/>
      <point x="293" y="1390" type="qcurve"/>
    </contour>
    <contour>
      <point x="410" y="127" type="line"/>
      <point x="408" y="158"/>
      <point x="408" y="242" type="qcurve" smooth="yes"/>
      <point x="410" y="498"/>
      <point x="448" y="694" type="qcurve" smooth="yes"/>
      <point x="465" y="786"/>
      <point x="504" y="817" type="qcurve"/>
      <point x="543" y="844"/>
      <point x="612" y="842" type="qcurve"/>
      <point x="664" y="842"/>
      <point x="688" y="813" type="qcurve"/>
      <point x="709" y="782"/>
      <point x="709" y="733" type="qcurve" smooth="yes"/>
      <point x="709" y="707"/>
      <point x="698" y="592" type="qcurve" smooth="yes"/>
      <point x="686" y="475"/>
      <point x="686" y="303" type="qcurve" smooth="yes"/>
      <point x="686" y="207"/>
      <point x="690" y="51" type="qcurve"/>
      <point x="569" y="51"/>
      <point x="496" y="78" type="qcurve"/>
      <point x="420" y="100"/>
      <point x="410" y="127" type="qcurve"/>
    </contour>
  </outline>
</glyph>
<glyph name="Odieresis" format="1">
  <advance width="1272"/>
  <unicode hex="0067"/>
  <outline>
    <contour>
      <point x="784" y="192" type="line"/>
      <point x="803" y="190" type="line"/>
      <point x="803" y="68"/>
      <point x="819" y="-57" type="qcurve"/>
      <point x="825" y="-117"/>
      <point x="831" y="-158" type="qcurve"/>
      <point x="836" y="-201"/>
      <point x="836" y="-215" type="qcurve" smooth="yes"/>
      <point x="833" y="-324"/>
      <point x="780" y="-410" type="qcurve"/>
      <point x="756" y="-451"/>
      <point x="731" y="-475" type="qcurve"/>
      <point x="707" y="-500"/>
      <point x="688" y="-502" type="qcurve"/>
      <point x="655" y="-500"/>
      <point x="606" y="-463" type="qcurve" smooth="yes"/>
      <point x="557" y="-426"/>
      <point x="491" y="-379" type="qcurve"/>
      <point x="430" y="-330"/>
      <point x="356" y="-295" type="qcurve"/>
      <point x="283" y="-258"/>
      <point x="203" y="-258" type="qcurve" smooth="yes"/>
      <point x="145" y="-258"/>
      <point x="74" y="-307" type="qcurve"/>
      <point x="2" y="-352"/>
      <point x="-41" y="-405" type="qcurve"/>
      <point x="-23" y="-438" type="line"/>
      <point x="10" y="-418"/>
      <point x="55" y="-405" type="qcurve"/>
      <point x="100" y="-395"/>
      <point x="129" y="-395" type="qcurve" smooth="yes"/>
      <point x="172" y="-395"/>
      <point x="219" y="-438" type="qcurve" smooth="yes"/>
      <point x="266" y="-481"/>
      <point x="315" y="-539" type="qcurve"/>
      <point x="344" y="-563"/>
      <point x="371" y="-588" type="qcurve"/>
      <point x="395" y="-612"/>
      <point x="420" y="-635" type="qcurve"/>
      <point x="473" y="-680"/>
      <point x="524" y="-682" type="qcurve"/>
      <point x="610" y="-678"/>
      <point x="727" y="-606" type="qcurve"/>
      <point x="842" y="-539"/>
      <point x="948" y="-469" type="qcurve"/>
      <point x="985" y="-442"/>
      <point x="1010" y="-395" type="qcurve" smooth="yes"/>
      <point x="1034" y="-348"/>
      <point x="1049" y="-293" type="qcurve"/>
      <point x="1075" y="-174"/>
      <point x="1075" y="-121" type="qcurve" smooth="yes"/>
      <point x="1075" y="215"/>
      <point x="1120" y="522" type="qcurve"/>
      <point x="1128" y="565"/>
      <point x="1128" y="590" type="qcurve" smooth="yes"/>
      <point x="1128" y="643"/>
      <point x="1081" y="641" type="qcurve" smooth="yes"/>
      <point x="1063" y="641"/>
      <point x="1042" y="633" type="qcurve" smooth="yes"/>
      <point x="1022" y="625"/>
      <point x="993" y="596" type="qcurve" smooth="yes"/>
      <point x="950" y="551"/>
      <point x="903" y="485" type="qcurve"/>
      <point x="858" y="420"/>
      <point x="809" y="354" type="qcurve" smooth="yes"/>
      <point x="762" y="291"/>
      <point x="713" y="248" type="qcurve" smooth="yes"/>
      <point x="661" y="201"/>
      <point x="606" y="201" type="qcurve" smooth="yes"/>
      <point x="563" y="201"/>
      <point x="522" y="238" type="qcurve"/>
      <point x="479" y="270"/>
      <point x="444" y="324" type="qcurve"/>
      <point x="367" y="436"/>
      <point x="365" y="553" type="qcurve"/>
      <point x="362" y="647"/>
      <point x="395" y="764" type="qcurve"/>
      <point x="416" y="819"/>
      <point x="455" y="854" type="qcurve" smooth="yes"/>
      <point x="494" y="889"/>
      <point x="557" y="889" type="qcurve"/>
      <point x="602" y="887"/>
      <point x="651" y="864" type="qcurve"/>
      <point x="698" y="840"/>
      <point x="743" y="807" type="qcurve"/>
      <point x="790" y="774"/>
      <point x="831" y="752" type="qcurve"/>
      <point x="872" y="723"/>
      <point x="899" y="723" type="qcurve" smooth="yes"/>
      <point x="940" y="723"/>
      <point x="1053" y="737" type="qcurve"/>
      <point x="1104" y="745"/>
      <point x="1141" y="758" type="qcurve" smooth="yes"/>
      <point x="1175" y="770"/>
      <point x="1178" y="786" type="qcurve"/>
      <point x="1184" y="784"/>
      <point x="924" y="969" type="qcurve"/>
      <point x="895" y="995"/>
      <point x="870" y="1014" type="qcurve"/>
      <point x="844" y="1028"/>
      <point x="815" y="1034" type="qcurve" smooth="yes"/>
      <point x="762" y="1044"/>
      <point x="707" y="1044" type="qcurve"/>
      <point x="471" y="1038"/>
      <point x="307" y="844" type="qcurve"/>
      <point x="139" y="655"/>
      <point x="135" y="422" type="qcurve"/>
      <point x="137" y="285"/>
      <point x="238" y="137" type="qcurve" smooth="yes"/>
      <point x="285" y="68"/>
      <point x="342" y="23" type="qcurve"/>
      <point x="397" y="-23"/>
      <point x="459" y="-25" type="qcurve"/>
      <point x="506" y="-23"/>
      <point x="555" y="0" type="qcurve" smooth="yes"/>
      <point x="604" y="23"/>
      <point x="651" y="57" type="qcurve"/>
      <point x="743" y="131"/>
      <point x="784" y="192" type="qcurve"/>
    </contour>
  </outline>
</glyph>
<glyph name="Udieresis" format="1">
  <advance width="1069"/>
  <unicode hex="0068"/>
  <outline>
    <contour>
      <point x="281" y="1393" type="line"/>
      <point x="125" y="727"/>
      <point x="133" y="229" type="qcurve"/>
      <point x="131" y="84"/>
      <point x="147" y="-27" type="qcurve"/>
      <point x="272" y="-8"/>
      <point x="414" y="-8" type="qcurve"/>
      <point x="408" y="84"/>
      <point x="408" y="190" type="qcurve" smooth="yes"/>
      <point x="408" y="387"/>
      <point x="418" y="563" type="qcurve"/>
      <point x="424" y="647"/>
      <point x="432" y="711" type="qcurve"/>
      <point x="438" y="770"/>
      <point x="451" y="795" type="qcurve"/>
      <point x="483" y="846"/>
      <point x="561" y="860" type="qcurve"/>
      <point x="641" y="870"/>
      <point x="700" y="870" type="qcurve"/>
      <point x="682" y="696"/>
      <point x="680" y="354" type="qcurve"/>
      <point x="678" y="211"/>
      <point x="704" y="-27" type="qcurve"/>
      <point x="969" y="-8" type="line"/>
      <point x="946" y="190"/>
      <point x="948" y="393" type="qcurve"/>
      <point x="948" y="530"/>
      <point x="965" y="672" type="qcurve"/>
      <point x="975" y="813"/>
      <point x="977" y="928" type="qcurve"/>
      <point x="977" y="993"/>
      <point x="969" y="993" type="qcurve" smooth="yes"/>
      <point x="950" y="993"/>
      <point x="795" y="977" type="qcurve"/>
      <point x="639" y="958"/>
      <point x="475" y="938" type="qcurve"/>
      <point x="522" y="1241"/>
      <point x="569" y="1352" type="qcurve"/>
      <point x="582" y="1378"/>
      <point x="582" y="1399" type="qcurve" smooth="yes"/>
      <point x="582" y="1427"/>
      <point x="561" y="1429" type="qcurve"/>
      <point x="561" y="1431"/>
      <point x="281" y="1393" type="qcurve"/>
    </contour>
  </outline>
</glyph>
<glyph name="oacute" format="1">
  <advance width="1311"/>
  <unicode hex="0079"/>
  <outline>
    <contour>
      <point x="74" y="934" type="line"/>
      <point x="156" y="932"/>
      <point x="207" y="897" type="qcurve" smooth="yes"/>
      <point x="233" y="879"/>
      <point x="254" y="846" type="qcurve"/>
      <point x="272" y="813"/>
      <point x="285" y="760" type="qcurve" smooth="yes"/>
      <point x="332" y="580"/>
      <point x="371" y="401" type="qcurve" smooth="yes"/>
      <point x="389" y="315"/>
      <point x="408" y="244" type="qcurve"/>
      <point x="426" y="170"/>
      <point x="442" y="123" type="qcurve"/>
      <point x="461" y="80"/>
      <point x="489" y="53" type="qcurve" smooth="yes"/>
      <point x="516" y="27"/>
      <point x="547" y="14" type="qcurve"/>
      <point x="610" y="-8"/>
      <point x="668" y="-8" type="qcurve"/>
      <point x="700" y="-6"/>
      <point x="700" y="-43" type="qcurve"/>
      <point x="696" y="-117"/>
      <point x="647" y="-358" type="qcurve"/>
      <point x="596" y="-600"/>
      <point x="594" y="-833" type="qcurve" smooth="yes"/>
      <point x="594" y="-919"/>
      <point x="606" y="-1008" type="qcurve"/>
      <point x="680" y="-1008" type="line"/>
      <point x="725" y="-965" type="line"/>
      <point x="696" y="-895"/>
      <point x="692" y="-768" type="qcurve"/>
      <point x="694" y="-625"/>
      <point x="750" y="-410" type="qcurve"/>
      <point x="801" y="-197"/>
      <point x="836" y="-8" type="qcurve"/>
      <point x="913" y="457"/>
      <point x="940" y="659" type="qcurve" smooth="yes"/>
      <point x="948" y="719"/>
      <point x="979" y="768" type="qcurve"/>
      <point x="1008" y="817"/>
      <point x="1057" y="819" type="qcurve" smooth="yes"/>
      <point x="1110" y="821"/>
      <point x="1135" y="760" type="qcurve"/>
      <point x="1157" y="760" type="line"/>
      <point x="1173" y="833"/>
      <point x="1200" y="891" type="qcurve"/>
      <point x="1227" y="946"/>
      <point x="1241" y="956" type="qcurve"/>
      <point x="1245" y="997" type="line"/>
      <point x="1180" y="1024"/>
      <point x="1112" y="1036" type="qcurve"/>
      <point x="1046" y="1044"/>
      <point x="1010" y="1044" type="qcurve" smooth="yes"/>
      <point x="829" y="1042"/>
      <point x="801" y="795" type="qcurve"/>
      <point x="772" y="471"/>
      <point x="735" y="102" type="qcurve"/>
      <point x="704" y="100"/>
      <point x="684" y="131" type="qcurve"/>
      <point x="659" y="162"/>
      <point x="639" y="258" type="qcurve"/>
      <point x="512" y="903" type="line"/>
      <point x="502" y="948"/>
      <point x="444" y="973" type="qcurve"/>
      <point x="387" y="993"/>
      <point x="311" y="993" type="qcurve" smooth="yes"/>
      <point x="74" y="993" type="line"/>
    </contour>
  </outline>
</glyph>
<glyph name="uacute" format="1">
  <advance width="840"/>
  <unicode hex="007E"/>
  <outline>
    <contour>
      <point x="115" y="1141" type="line"/>
      <point x="104" y="1151"/>
      <point x="92" y="1180" type="qcurve"/>
      <point x="78" y="1208"/>
      <point x="78" y="1239" type="qcurve" smooth="yes"/>
      <point x="78" y="1300"/>
      <point x="147" y="1300" type="qcurve" smooth="yes"/>
      <point x="174" y="1300"/>
      <point x="211" y="1268" type="qcurve" smooth="yes"/>
      <point x="248" y="1235"/>
      <point x="297" y="1190" type="qcurve"/>
      <point x="346" y="1149"/>
      <point x="408" y="1116" type="qcurve"/>
      <point x="469" y="1079"/>
      <point x="541" y="1079" type="qcurve" smooth="yes"/>
      <point x="657" y="1079"/>
      <point x="721" y="1108" type="qcurve"/>
      <point x="782" y="1137"/>
      <point x="838" y="1188" type="qcurve"/>
      <point x="784" y="1266" type="line"/>
      <point x="784" y="1266" type="line"/>
      <point x="770" y="1237"/>
      <point x="741" y="1218" type="qcurve"/>
      <point x="713" y="1194"/>
      <point x="678" y="1194" type="qcurve" smooth="yes"/>
      <point x="639" y="1194"/>
      <point x="600" y="1233" type="qcurve"/>
      <point x="557" y="1268"/>
      <point x="506" y="1313" type="qcurve" smooth="yes"/>
      <point x="455" y="1358"/>
      <point x="383" y="1393" type="qcurve"/>
      <point x="311" y="1425"/>
      <point x="207" y="1427" type="qcurve"/>
      <point x="149" y="1427"/>
      <point x="109" y="1405" type="qcurve"/>
      <point x="70" y="1382"/>
      <point x="45" y="1347" type="qcurve"/>
      <point x="25" y="1313"/>
      <point x="14" y="1278" type="qcurve" smooth="yes"/>
      <point x="2" y="1241"/>
      <point x="2" y="1208" type="qcurve" smooth="yes"/>
      <point x="2" y="1188"/>
      <point x="14" y="1147" type="qcurve"/>
      <point x="25" y="1104"/>
      <point x="33" y="1081" type="qcurve"/>
    </contour>
  </outline>
</glyph>
<glyph name="ordmasculine" format="1">
  <advance width="1268"/>
  <unicode hex="009E"/>
  <unicode hex="045b"/>
  <outline>
    <contour>
      <point x="420" y="1718" type="line"/>
      <point x="387" y="1612"/>
      <point x="348" y="1393" type="qcurve"/>
      <point x="192" y="1388" type="line"/>
      <point x="156" y="1257" type="line"/>
      <point x="319" y="1286" type="line"/>
      <point x="199" y="577"/>
      <point x="203" y="229" type="qcurve"/>
      <point x="201" y="84"/>
      <point x="217" y="-27" type="qcurve"/>
      <point x="346" y="-6"/>
      <point x="483" y="-8" type="qcurve"/>
      <point x="477" y="92"/>
      <point x="477" y="223" type="qcurve" smooth="yes"/>
      <point x="477" y="420"/>
      <point x="491" y="604" type="qcurve"/>
      <point x="502" y="692"/>
      <point x="516" y="756" type="qcurve"/>
      <point x="528" y="819"/>
      <point x="549" y="844" type="qcurve"/>
      <point x="569" y="862"/>
      <point x="594" y="874" type="qcurve"/>
      <point x="618" y="887"/>
      <point x="647" y="893" type="qcurve" smooth="yes"/>
      <point x="676" y="899"/>
      <point x="700" y="903" type="qcurve"/>
      <point x="729" y="903" type="line" smooth="yes"/>
      <point x="760" y="903"/>
      <point x="768" y="887" type="qcurve" smooth="yes"/>
      <point x="776" y="870"/>
      <point x="776" y="854" type="qcurve" smooth="yes"/>
      <point x="778" y="516"/>
      <point x="702" y="10" type="qcurve"/>
      <point x="733" y="-10" type="line"/>
      <point x="969" y="14" type="line"/>
      <point x="1001" y="20"/>
      <point x="1001" y="35" type="qcurve"/>
      <point x="1055" y="436"/>
      <point x="1061" y="889" type="qcurve" smooth="yes"/>
      <point x="1061" y="934"/>
      <point x="1053" y="967" type="qcurve"/>
      <point x="1044" y="999"/>
      <point x="1016" y="1001" type="qcurve"/>
      <point x="977" y="999"/>
      <point x="825" y="989" type="qcurve"/>
      <point x="674" y="975"/>
      <point x="545" y="965" type="qcurve"/>
      <point x="565" y="1165"/>
      <point x="596" y="1296" type="qcurve"/>
      <point x="885" y="1317" type="line"/>
      <point x="903" y="1321"/>
      <point x="915" y="1335" type="qcurve"/>
      <point x="928" y="1347"/>
      <point x="936" y="1366" type="qcurve"/>
      <point x="950" y="1407"/>
      <point x="950" y="1436" type="qcurve"/>
      <point x="625" y="1407" type="line"/>
      <point x="647" y="1481"/>
      <point x="678" y="1581" type="qcurve"/>
      <point x="694" y="1628"/>
      <point x="702" y="1669" type="qcurve"/>
      <point x="713" y="1708"/>
      <point x="713" y="1730" type="qcurve" smooth="yes"/>
      <point x="713" y="1755"/>
      <point x="700" y="1755" type="qcurve"/>
      <point x="717" y="1757"/>
      <point x="420" y="1718" type="qcurve"/>
    </contour>
  </outline>
</glyph>
<glyph name="radical" format="1">
  <advance width="1266"/>
  <unicode hex="00A5"/>
  <unicode hex="0490"/>
  <outline>
    <contour>
      <point x="213" y="1401" type="line"/>
      <point x="168" y="1237"/>
      <point x="168" y="651" type="qcurve"/>
      <point x="166" y="416"/>
      <point x="190" y="59" type="qcurve"/>
      <point x="195" y="20"/>
      <point x="215" y="-2" type="qcurve"/>
      <point x="233" y="-27"/>
      <point x="250" y="-27" type="qcurve" smooth="yes"/>
      <point x="330" y="-23"/>
      <point x="477" y="-4" type="qcurve" smooth="yes"/>
      <point x="524" y="2"/>
      <point x="539" y="18" type="qcurve"/>
      <point x="551" y="35"/>
      <point x="551" y="74" type="qcurve"/>
      <point x="537" y="375"/>
      <point x="528" y="747" type="qcurve"/>
      <point x="526" y="991"/>
      <point x="561" y="1190" type="qcurve"/>
      <point x="577" y="1266"/>
      <point x="627" y="1298" type="qcurve" smooth="yes"/>
      <point x="674" y="1329"/>
      <point x="788" y="1329" type="qcurve"/>
      <point x="844" y="1327"/>
      <point x="952" y="1317" type="qcurve"/>
      <point x="1059" y="1302"/>
      <point x="1122" y="1302" type="qcurve" smooth="yes"/>
      <point x="1182" y="1302"/>
      <point x="1223" y="1317" type="qcurve" smooth="yes"/>
      <point x="1261" y="1331"/>
      <point x="1261" y="1370" type="qcurve"/>
      <point x="1257" y="1456"/>
      <point x="1159" y="1534" type="qcurve" smooth="yes"/>
      <point x="1114" y="1571"/>
      <point x="1067" y="1593" type="qcurve" smooth="yes"/>
      <point x="1020" y="1614"/>
      <point x="983" y="1614" type="qcurve" smooth="yes"/>
      <point x="971" y="1614"/>
      <point x="956" y="1610" type="qcurve"/>
      <point x="942" y="1603"/>
      <point x="942" y="1593" type="qcurve" smooth="yes"/>
      <point x="946" y="1552"/>
      <point x="948" y="1503" type="qcurve"/>
      <point x="948" y="1464"/>
      <point x="926" y="1450" type="qcurve"/>
      <point x="903" y="1433"/>
      <point x="872" y="1433" type="qcurve" smooth="yes"/>
      <point x="625" y="1433" type="line" smooth="yes"/>
      <point x="379" y="1433"/>
      <point x="213" y="1401" type="qcurve"/>
    </contour>
  </outline>
</glyph>
<glyph name="guillemotleft" format="1">
  <advance width="2009"/>
  <unicode hex="00A9"/>
  <outline>
    <contour>
      <point x="1155" y="926" type="line"/>
      <point x="1155" y="926" type="line"/>
      <point x="1132" y="989"/>
      <point x="1087" y="1032" type="qcurve"/>
      <point x="1042" y="1073"/>
      <point x="967" y="1075" type="qcurve"/>
      <point x="911" y="1073"/>
      <point x="879" y="1038" type="qcurve"/>
      <point x="842" y="1003"/>
      <point x="823" y="950" type="qcurve" smooth="yes"/>
      <point x="805" y="899"/>
      <point x="799" y="852" type="qcurve"/>
      <point x="790" y="801"/>
      <point x="790" y="772" type="qcurve" smooth="yes"/>
      <point x="790" y="727"/>
      <point x="799" y="661" type="qcurve" smooth="yes"/>
      <point x="807" y="596"/>
      <point x="827" y="526" type="qcurve"/>
      <point x="848" y="459"/>
      <point x="891" y="414" type="qcurve"/>
      <point x="930" y="365"/>
      <point x="993" y="365" type="qcurve" smooth="yes"/>
      <point x="1034" y="365"/>
      <point x="1071" y="391" type="qcurve" smooth="yes"/>
      <point x="1106" y="416"/>
      <point x="1137" y="444" type="qcurve"/>
      <point x="1171" y="477"/>
      <point x="1198" y="500" type="qcurve"/>
      <point x="1227" y="522"/>
      <point x="1247" y="522" type="qcurve"/>
      <point x="1272" y="500"/>
      <point x="1272" y="475" type="qcurve" smooth="yes"/>
      <point x="1272" y="438"/>
      <point x="1237" y="397" type="qcurve"/>
      <point x="1202" y="354"/>
      <point x="1147" y="315" type="qcurve"/>
      <point x="1094" y="279"/>
      <point x="1034" y="256" type="qcurve"/>
      <point x="975" y="229"/>
      <point x="924" y="229" type="qcurve" smooth="yes"/>
      <point x="778" y="231"/>
      <point x="686" y="369" type="qcurve"/>
      <point x="592" y="500"/>
      <point x="592" y="690" type="qcurve"/>
      <point x="594" y="858"/>
      <point x="664" y="971" type="qcurve"/>
      <point x="727" y="1079"/>
      <point x="795" y="1112" type="qcurve"/>
      <point x="956" y="1196"/>
      <point x="1145" y="1194" type="qcurve"/>
      <point x="1229" y="1190"/>
      <point x="1309" y="1114" type="qcurve" smooth="yes"/>
      <point x="1347" y="1079"/>
      <point x="1370" y="1040" type="qcurve"/>
      <point x="1393" y="1003"/>
      <point x="1393" y="971" type="qcurve"/>
    </contour>
    <contour>
      <point x="1005" y="1630" type="line"/>
      <point x="625" y="1624"/>
      <point x="373" y="1362" type="qcurve"/>
      <point x="113" y="1100"/>
      <point x="109" y="709" type="qcurve"/>
      <point x="113" y="322"/>
      <point x="379" y="68" type="qcurve"/>
      <point x="639" y="-190"/>
      <point x="1020" y="-197" type="qcurve"/>
      <point x="1403" y="-190"/>
      <point x="1655" y="72" type="qcurve"/>
      <point x="1907" y="328"/>
      <point x="1911" y="719" type="qcurve"/>
      <point x="1905" y="1110"/>
      <point x="1649" y="1366" type="qcurve"/>
      <point x="1393" y="1626"/>
      <point x="1005" y="1630" type="qcurve"/>
    </contour>
    <contour>
      <point x="1153" y="1444" type="line"/>
      <point x="1411" y="1440"/>
      <point x="1575" y="1261" type="qcurve"/>
      <point x="1739" y="1085"/>
      <point x="1743" y="846" type="qcurve"/>
      <point x="1737" y="532"/>
      <point x="1477" y="266" type="qcurve"/>
      <point x="1221" y="-10"/>
      <point x="876" y="-18" type="qcurve"/>
      <point x="618" y="-14"/>
      <point x="448" y="162" type="qcurve"/>
      <point x="272" y="334"/>
      <point x="270" y="584" type="qcurve"/>
      <point x="276" y="909"/>
      <point x="551" y="1169" type="qcurve"/>
      <point x="813" y="1436"/>
      <point x="1153" y="1444" type="qcurve"/>
    </contour>
  </outline>
</glyph>
<glyph name="quoteleft" format="1">
  <advance width="1689"/>
  <unicode hex="00B6"/>
  <outline>
    <contour>
      <point x="1429" y="-463" type="line"/>
      <point x="1454" y="-440"/>
      <point x="1454" y="-377" type="qcurve"/>
      <point x="1446" y="-47"/>
      <point x="1442" y="322" type="qcurve"/>
      <point x="1444" y="766"/>
      <point x="1501" y="1257" type="qcurve"/>
      <point x="1513" y="1341"/>
      <point x="1513" y="1362" type="qcurve" smooth="yes"/>
      <point x="1513" y="1388"/>
      <point x="1503" y="1421" type="qcurve"/>
      <point x="1491" y="1452"/>
      <point x="1466" y="1454" type="qcurve"/>
      <point x="1368" y="1454"/>
      <point x="960" y="1407" type="qcurve"/>
      <point x="772" y="1382"/>
      <point x="594" y="1343" type="qcurve"/>
      <point x="418" y="1302"/>
      <point x="307" y="1247" type="qcurve"/>
      <point x="266" y="1225"/>
      <point x="229" y="1163" type="qcurve"/>
      <point x="192" y="1104"/>
      <point x="164" y="1024" type="qcurve" smooth="yes"/>
      <point x="104" y="858"/>
      <point x="102" y="723" type="qcurve"/>
      <point x="104" y="471"/>
      <point x="207" y="295" type="qcurve" smooth="yes"/>
      <point x="256" y="211"/>
      <point x="322" y="162" type="qcurve"/>
      <point x="383" y="111"/>
      <point x="455" y="111" type="qcurve" smooth="yes"/>
      <point x="510" y="111"/>
      <point x="565" y="145" type="qcurve" smooth="yes"/>
      <point x="618" y="178"/>
      <point x="631" y="225" type="qcurve"/>
      <point x="602" y="309" type="line"/>
      <point x="596" y="330"/>
      <point x="577" y="330" type="qcurve"/>
      <point x="567" y="297"/>
      <point x="543" y="283" type="qcurve" smooth="yes"/>
      <point x="516" y="268"/>
      <point x="489" y="268" type="qcurve" smooth="yes"/>
      <point x="440" y="268"/>
      <point x="408" y="317" type="qcurve"/>
      <point x="371" y="365"/>
      <point x="346" y="436" type="qcurve"/>
      <point x="301" y="590"/>
      <point x="301" y="743" type="qcurve" smooth="yes"/>
      <point x="301" y="889"/>
      <point x="385" y="1044" type="qcurve"/>
      <point x="428" y="1118"/>
      <point x="496" y="1165" type="qcurve"/>
      <point x="563" y="1210"/>
      <point x="653" y="1212" type="qcurve"/>
      <point x="694" y="1208"/>
      <point x="700" y="1208" type="qcurve"/>
      <point x="664" y="909"/>
      <point x="661" y="350" type="qcurve"/>
      <point x="661" y="-14"/>
      <point x="678" y="-393" type="qcurve"/>
      <point x="682" y="-442"/>
      <point x="698" y="-463" type="qcurve" smooth="yes"/>
      <point x="715" y="-487"/>
      <point x="725" y="-489" type="qcurve"/>
      <point x="915" y="-461" type="line"/>
      <point x="930" y="-446"/>
      <point x="936" y="-428" type="qcurve"/>
      <point x="940" y="-412"/>
      <point x="940" y="-379" type="qcurve"/>
      <point x="932" y="-149"/>
      <point x="928" y="270" type="qcurve"/>
      <point x="930" y="823"/>
      <point x="997" y="1337" type="qcurve"/>
      <point x="1128" y="1350"/>
      <point x="1245" y="1366" type="qcurve"/>
      <point x="1231" y="1259"/>
      <point x="1206" y="1010" type="qcurve"/>
      <point x="1178" y="758"/>
      <point x="1175" y="430" type="qcurve"/>
      <point x="1173" y="20"/>
      <point x="1192" y="-395" type="qcurve"/>
      <point x="1196" y="-444"/>
      <point x="1212" y="-465" type="qcurve" smooth="yes"/>
      <point x="1229" y="-489"/>
      <point x="1239" y="-491" type="qcurve"/>
    </contour>
  </outline>
</glyph>
<glyph name="divide" format="1">
  <advance width="723"/>
  <unicode hex="00B8"/>
  <unicode hex="0451"/>
  <outline>
    <contour>
      <point x="365" y="592" type="line"/>
      <point x="358" y="631"/>
      <point x="358" y="661" type="qcurve" smooth="yes"/>
      <point x="360" y="758"/>
      <point x="422" y="795" type="qcurve"/>
      <point x="481" y="829"/>
      <point x="555" y="840" type="qcurve"/>
      <point x="616" y="860"/>
      <point x="614" y="977" type="qcurve" smooth="yes"/>
      <point x="614" y="1026"/>
      <point x="608" y="1038" type="qcurve"/>
      <point x="596" y="1046"/>
      <point x="551" y="1046" type="qcurve"/>
      <point x="422" y="1049"/>
      <point x="231" y="946" type="qcurve"/>
      <point x="154" y="897"/>
      <point x="121" y="827" type="qcurve"/>
      <point x="86" y="758"/>
      <point x="86" y="674" type="qcurve"/>
      <point x="90" y="408"/>
      <point x="195" y="195" type="qcurve"/>
      <point x="242" y="92"/>
      <point x="293" y="33" type="qcurve"/>
      <point x="344" y="-31"/>
      <point x="385" y="-33" type="qcurve"/>
      <point x="465" y="-31"/>
      <point x="551" y="25" type="qcurve" smooth="yes"/>
      <point x="592" y="51"/>
      <point x="616" y="88" type="qcurve"/>
      <point x="641" y="123"/>
      <point x="641" y="164" type="qcurve" smooth="yes"/>
      <point x="641" y="192"/>
      <point x="629" y="213" type="qcurve"/>
      <point x="612" y="231"/>
      <point x="588" y="231" type="qcurve"/>
      <point x="565" y="227"/>
      <point x="534" y="225" type="qcurve"/>
      <point x="442" y="225"/>
      <point x="405" y="391" type="qcurve"/>
      <point x="410" y="418" type="line"/>
      <point x="440" y="436"/>
      <point x="481" y="451" type="qcurve"/>
      <point x="518" y="463"/>
      <point x="553" y="475" type="qcurve"/>
      <point x="571" y="485"/>
      <point x="580" y="524" type="qcurve"/>
      <point x="586" y="559"/>
      <point x="586" y="598" type="qcurve" smooth="yes"/>
      <point x="586" y="641"/>
      <point x="580" y="651" type="qcurve"/>
      <point x="573" y="657"/>
      <point x="553" y="657" type="qcurve" smooth="yes"/>
      <point x="528" y="657"/>
      <point x="471" y="637" type="qcurve"/>
      <point x="412" y="618"/>
      <point x="365" y="592" type="qcurve"/>
    </contour>
    <contour>
      <point x="514" y="1182" type="line"/>
      <point x="592" y="1184"/>
      <point x="639" y="1216" type="qcurve" smooth="yes"/>
      <point x="664" y="1233"/>
      <point x="680" y="1272" type="qcurve"/>
      <point x="692" y="1307"/>
      <point x="692" y="1382" type="qcurve"/>
      <point x="690" y="1407"/>
      <point x="659" y="1415" type="qcurve"/>
      <point x="627" y="1419"/>
      <point x="602" y="1419" type="qcurve" smooth="yes"/>
      <point x="541" y="1419"/>
      <point x="487" y="1397" type="qcurve"/>
      <point x="432" y="1372"/>
      <point x="430" y="1290" type="qcurve"/>
      <point x="430" y="1231"/>
      <point x="455" y="1206" type="qcurve"/>
      <point x="477" y="1180"/>
      <point x="514" y="1182" type="qcurve"/>
    </contour>
    <contour>
      <point x="137" y="1163" type="line"/>
      <point x="215" y="1165"/>
      <point x="262" y="1198" type="qcurve"/>
      <point x="287" y="1214"/>
      <point x="303" y="1253" type="qcurve"/>
      <point x="315" y="1288"/>
      <point x="315" y="1364" type="qcurve"/>
      <point x="313" y="1388"/>
      <point x="283" y="1397" type="qcurve"/>
      <point x="250" y="1401"/>
      <point x="225" y="1401" type="qcurve" smooth="yes"/>
      <point x="164" y="1401"/>
      <point x="111" y="1378" type="qcurve" smooth="yes"/>
      <point x="55" y="1354"/>
      <point x="53" y="1272" type="qcurve"/>
      <point x="53" y="1212"/>
      <point x="78" y="1188" type="qcurve"/>
      <point x="100" y="1161"/>
      <point x="137" y="1163" type="qcurve"/>
    </contour>
  </outline>
</glyph>
<glyph name="quotesinglbase" format="1">
  <advance width="1323"/>
  <unicode hex="00C4"/>
  <unicode hex="0414"/>
  <outline>
    <contour>
      <point x="1063" y="367" type="line"/>
      <point x="1063" y="1083" type="line" smooth="yes"/>
      <point x="1063" y="1184"/>
      <point x="1079" y="1282" type="qcurve"/>
      <point x="1085" y="1329"/>
      <point x="1092" y="1360" type="qcurve"/>
      <point x="1096" y="1388"/>
      <point x="1096" y="1395" type="qcurve" smooth="yes"/>
      <point x="1096" y="1433"/>
      <point x="1042" y="1433" type="qcurve"/>
      <point x="1005" y="1429"/>
      <point x="948" y="1429" type="qcurve" smooth="yes"/>
      <point x="825" y="1429" type="line"/>
      <point x="747" y="1427"/>
      <point x="719" y="1350" type="qcurve"/>
      <point x="686" y="1274"/>
      <point x="688" y="1180" type="qcurve"/>
      <point x="688" y="1128"/>
      <point x="696" y="1069" type="qcurve"/>
      <point x="702" y="1008"/>
      <point x="702" y="932" type="qcurve" smooth="yes"/>
      <point x="700" y="745"/>
      <point x="588" y="446" type="qcurve"/>
      <point x="532" y="311"/>
      <point x="457" y="215" type="qcurve" smooth="yes"/>
      <point x="381" y="117"/>
      <point x="285" y="115" type="qcurve"/>
      <point x="190" y="119"/>
      <point x="135" y="121" type="qcurve"/>
      <point x="66" y="121"/>
      <point x="37" y="106" type="qcurve"/>
      <point x="6" y="94"/>
      <point x="6" y="74" type="qcurve" smooth="yes"/>
      <point x="8" y="-4"/>
      <point x="86" y="-135" type="qcurve"/>
      <point x="160" y="-268"/>
      <point x="268" y="-481" type="qcurve"/>
      <point x="285" y="-506"/>
      <point x="301" y="-516" type="qcurve"/>
      <point x="317" y="-528"/>
      <point x="326" y="-528" type="qcurve" smooth="yes"/>
      <point x="350" y="-526"/>
      <point x="350" y="-483" type="qcurve"/>
      <point x="344" y="-426"/>
      <point x="342" y="-315" type="qcurve" smooth="yes"/>
      <point x="340" y="-203"/>
      <point x="375" y="-104" type="qcurve"/>
      <point x="393" y="-57"/>
      <point x="426" y="-29" type="qcurve"/>
      <point x="457" y="0"/>
      <point x="508" y="0" type="qcurve" smooth="yes"/>
      <point x="825" y="0" type="line" smooth="yes"/>
      <point x="885" y="0"/>
      <point x="907" y="-20" type="qcurve"/>
      <point x="926" y="-43"/>
      <point x="926" y="-76" type="qcurve"/>
      <point x="924" y="-135"/>
      <point x="899" y="-264" type="qcurve"/>
      <point x="891" y="-324"/>
      <point x="881" y="-379" type="qcurve"/>
      <point x="870" y="-432"/>
      <point x="870" y="-463" type="qcurve" smooth="yes"/>
      <point x="870" y="-487"/>
      <point x="885" y="-514" type="qcurve"/>
      <point x="895" y="-541"/>
      <point x="911" y="-543" type="qcurve"/>
      <point x="926" y="-543"/>
      <point x="940" y="-528" type="qcurve" smooth="yes"/>
      <point x="954" y="-514"/>
      <point x="977" y="-475" type="qcurve" smooth="yes"/>
      <point x="1286" y="35" type="line"/>
      <point x="1272" y="100" type="line"/>
      <point x="1229" y="86"/>
      <point x="1198" y="86" type="qcurve" smooth="yes"/>
      <point x="1110" y="88"/>
      <point x="1085" y="180" type="qcurve" smooth="yes"/>
      <point x="1073" y="221"/>
      <point x="1069" y="270" type="qcurve" smooth="yes"/>
      <point x="1067" y="295"/>
      <point x="1067" y="319" type="qcurve"/>
      <point x="1063" y="344"/>
      <point x="1063" y="367" type="qcurve"/>
    </contour>
    <contour>
      <point x="690" y="457" type="line"/>
      <point x="702" y="453" type="line"/>
      <point x="702" y="152" type="line"/>
      <point x="668" y="119"/>
      <point x="616" y="121" type="qcurve"/>
      <point x="586" y="121"/>
      <point x="567" y="129" type="qcurve"/>
      <point x="547" y="135"/>
      <point x="547" y="162" type="qcurve" smooth="yes"/>
      <point x="547" y="190"/>
      <point x="565" y="229" type="qcurve" smooth="yes"/>
      <point x="582" y="266"/>
      <point x="604" y="307" type="qcurve"/>
      <point x="655" y="391"/>
      <point x="690" y="457" type="qcurve"/>
    </contour>
  </outline>
</glyph>
<glyph name="Aacute" format="1">
  <advance width="1550"/>
  <unicode hex="00C9"/>
  <unicode hex="0419"/>
  <outline>
    <contour>
      <point x="281" y="1380" type="line"/>
      <point x="170" y="905"/>
      <point x="170" y="281" type="qcurve"/>
      <point x="168" y="102"/>
      <point x="188" y="-27" type="qcurve"/>
      <point x="188" y="-27" type="line"/>
      <point x="567" y="18" type="line"/>
      <point x="567" y="418"/>
      <point x="575" y="571" type="qcurve"/>
      <point x="909" y="780" type="line"/>
      <point x="928" y="790"/>
      <point x="938" y="790" type="qcurve" smooth="yes"/>
      <point x="977" y="790"/>
      <point x="979" y="727" type="qcurve"/>
      <point x="979" y="297" type="line" smooth="yes"/>
      <point x="979" y="152"/>
      <point x="993" y="82" type="qcurve"/>
      <point x="1005" y="8"/>
      <point x="1036" y="0" type="qcurve" smooth="yes"/>
      <point x="1094" y="-14"/>
      <point x="1153" y="-20" type="qcurve"/>
      <point x="1210" y="-27"/>
      <point x="1251" y="-27" type="qcurve" smooth="yes"/>
      <point x="1300" y="-27"/>
      <point x="1329" y="-4" type="qcurve" smooth="yes"/>
      <point x="1354" y="16"/>
      <point x="1354" y="74" type="qcurve"/>
      <point x="1339" y="422"/>
      <point x="1331" y="750" type="qcurve"/>
      <point x="1331" y="1061"/>
      <point x="1401" y="1345" type="qcurve" smooth="yes"/>
      <point x="1407" y="1368"/>
      <point x="1407" y="1390" type="qcurve" smooth="yes"/>
      <point x="1407" y="1417"/>
      <point x="1401" y="1436" type="qcurve"/>
      <point x="1393" y="1454"/>
      <point x="1374" y="1454" type="qcurve" smooth="yes"/>
      <point x="1372" y="1454"/>
      <point x="1304" y="1448" type="qcurve"/>
      <point x="1235" y="1438"/>
      <point x="1016" y="1401" type="qcurve"/>
      <point x="999" y="1323"/>
      <point x="987" y="1182" type="qcurve"/>
      <point x="971" y="1040"/>
      <point x="971" y="979" type="qcurve"/>
      <point x="827" y="870"/>
      <point x="737" y="811" type="qcurve"/>
      <point x="692" y="780"/>
      <point x="661" y="766" type="qcurve"/>
      <point x="631" y="747"/>
      <point x="614" y="747" type="qcurve"/>
      <point x="590" y="745"/>
      <point x="590" y="797" type="qcurve"/>
      <point x="592" y="870"/>
      <point x="639" y="1077" type="qcurve"/>
      <point x="657" y="1173"/>
      <point x="674" y="1247" type="qcurve"/>
      <point x="686" y="1321"/>
      <point x="686" y="1339" type="qcurve" smooth="yes"/>
      <point x="686" y="1362"/>
      <point x="674" y="1384" type="qcurve"/>
      <point x="659" y="1405"/>
      <point x="618" y="1407" type="qcurve"/>
      <point x="528" y="1405"/>
      <point x="281" y="1380" type="qcurve"/>
    </contour>
    <contour>
      <point x="231" y="1732" type="line"/>
      <point x="369" y="1798" type="line"/>
      <point x="352" y="1814"/>
      <point x="336" y="1853" type="qcurve"/>
      <point x="313" y="1890"/>
      <point x="313" y="1943" type="qcurve" smooth="yes"/>
      <point x="313" y="1999"/>
      <point x="348" y="2048" type="qcurve" smooth="yes"/>
      <point x="381" y="2095"/>
      <point x="436" y="2097" type="qcurve"/>
      <point x="494" y="2097"/>
      <point x="524" y="2052" type="qcurve"/>
      <point x="555" y="2003"/>
      <point x="627" y="1902" type="qcurve"/>
      <point x="727" y="1780"/>
      <point x="831" y="1739" type="qcurve"/>
      <point x="934" y="1696"/>
      <point x="1046" y="1698" type="qcurve"/>
      <point x="1110" y="1698"/>
      <point x="1196" y="1720" type="qcurve"/>
      <point x="1278" y="1745"/>
      <point x="1358" y="1804" type="qcurve"/>
      <point x="1440" y="1866"/>
      <point x="1493" y="1974" type="qcurve"/>
      <point x="1544" y="2085"/>
      <point x="1546" y="2255" type="qcurve" smooth="yes"/>
      <point x="1546" y="2328"/>
      <point x="1536" y="2386" type="qcurve"/>
      <point x="1524" y="2441"/>
      <point x="1503" y="2480" type="qcurve"/>
      <point x="1485" y="2519"/>
      <point x="1460" y="2550" type="qcurve"/>
      <point x="1436" y="2576"/>
      <point x="1413" y="2595" type="qcurve"/>
      <point x="1390" y="2617"/>
      <point x="1343" y="2650" type="qcurve"/>
      <point x="1292" y="2681"/>
      <point x="1235" y="2683" type="qcurve"/>
      <point x="1198" y="2683"/>
      <point x="1165" y="2670" type="qcurve"/>
      <point x="1130" y="2652"/>
      <point x="1087" y="2607" type="qcurve"/>
      <point x="942" y="2355" type="line"/>
      <point x="1003" y="2312" type="line"/>
      <point x="1003" y="2312" type="line"/>
      <point x="1087" y="2423"/>
      <point x="1175" y="2423" type="qcurve"/>
      <point x="1245" y="2421"/>
      <point x="1335" y="2347" type="qcurve"/>
      <point x="1376" y="2310"/>
      <point x="1405" y="2263" type="qcurve"/>
      <point x="1431" y="2216"/>
      <point x="1431" y="2160" type="qcurve" smooth="yes"/>
      <point x="1431" y="2085"/>
      <point x="1413" y="2031" type="qcurve"/>
      <point x="1390" y="1980"/>
      <point x="1360" y="1945" type="qcurve"/>
      <point x="1329" y="1915"/>
      <point x="1294" y="1900" type="qcurve" smooth="yes"/>
      <point x="1257" y="1884"/>
      <point x="1223" y="1884" type="qcurve" smooth="yes"/>
      <point x="1135" y="1882"/>
      <point x="1075" y="1925" type="qcurve" smooth="yes"/>
      <point x="1016" y="1968"/>
      <point x="934" y="2089" type="qcurve"/>
      <point x="895" y="2150"/>
      <point x="862" y="2189" type="qcurve"/>
      <point x="829" y="2226"/>
      <point x="788" y="2246" type="qcurve"/>
      <point x="713" y="2285"/>
      <point x="522" y="2283" type="qcurve" smooth="yes"/>
      <point x="420" y="2281"/>
      <point x="356" y="2240" type="qcurve" smooth="yes"/>
      <point x="293" y="2199"/>
      <point x="258" y="2136" type="qcurve"/>
      <point x="225" y="2072"/>
      <point x="215" y="2007" type="qcurve"/>
      <point x="203" y="1939"/>
      <point x="203" y="1888" type="qcurve" smooth="yes"/>
      <point x="203" y="1808"/>
      <point x="231" y="1732" type="qcurve"/>
    </contour>
  </outline>
</glyph>
<glyph name="Icircumflex" format="1">
  <advance width="1552"/>
  <unicode hex="00CD"/>
  <unicode hex="041d"/>
  <outline>
    <contour>
      <point x="633" y="1005" type="line"/>
      <point x="668" y="1192"/>
      <point x="682" y="1266" type="qcurve"/>
      <point x="692" y="1335" type="line"/>
      <point x="694" y="1405"/>
      <point x="616" y="1407" type="qcurve"/>
      <point x="559" y="1405"/>
      <point x="287" y="1380" type="qcurve"/>
      <point x="176" y="905"/>
      <point x="176" y="281" type="qcurve"/>
      <point x="174" y="102"/>
      <point x="195" y="-27" type="qcurve"/>
      <point x="195" y="-27" type="line"/>
      <point x="573" y="18" type="line"/>
      <point x="573" y="383"/>
      <point x="584" y="608" type="qcurve" smooth="yes"/>
      <point x="590" y="719"/>
      <point x="596" y="784" type="qcurve" smooth="yes"/>
      <point x="602" y="848"/>
      <point x="610" y="860" type="qcurve"/>
      <point x="985" y="831" type="line"/>
      <point x="985" y="299" type="line" smooth="yes"/>
      <point x="985" y="152"/>
      <point x="999" y="82" type="qcurve"/>
      <point x="1012" y="8"/>
      <point x="1042" y="0" type="qcurve" smooth="yes"/>
      <point x="1100" y="-14"/>
      <point x="1159" y="-20" type="qcurve"/>
      <point x="1216" y="-27"/>
      <point x="1257" y="-27" type="qcurve" smooth="yes"/>
      <point x="1307" y="-27"/>
      <point x="1335" y="-4" type="qcurve" smooth="yes"/>
      <point x="1360" y="16"/>
      <point x="1360" y="74" type="qcurve"/>
      <point x="1345" y="422"/>
      <point x="1337" y="750" type="qcurve"/>
      <point x="1337" y="1061"/>
      <point x="1407" y="1345" type="qcurve" smooth="yes"/>
      <point x="1413" y="1368"/>
      <point x="1413" y="1390" type="qcurve" smooth="yes"/>
      <point x="1413" y="1417"/>
      <point x="1407" y="1436" type="qcurve"/>
      <point x="1399" y="1454"/>
      <point x="1380" y="1454" type="qcurve" smooth="yes"/>
      <point x="1378" y="1454"/>
      <point x="1311" y="1448" type="qcurve"/>
      <point x="1241" y="1438"/>
      <point x="1022" y="1401" type="qcurve"/>
      <point x="991" y="1274"/>
      <point x="977" y="979" type="qcurve"/>
    </contour>
  </outline>
</glyph>
<glyph name="Igrave" format="1">
  <advance width="1560"/>
  <unicode hex="00CF"/>
  <unicode hex="041f"/>
  <outline>
    <contour>
      <point x="287" y="1386" type="line"/>
      <point x="172" y="903"/>
      <point x="172" y="268" type="qcurve"/>
      <point x="170" y="96"/>
      <point x="190" y="-27" type="qcurve"/>
      <point x="190" y="-27" type="line"/>
      <point x="571" y="20" type="line"/>
      <point x="571" y="434" type="line"/>
      <point x="569" y="594"/>
      <point x="596" y="897" type="qcurve"/>
      <point x="610" y="1036"/>
      <point x="635" y="1145" type="qcurve" smooth="yes"/>
      <point x="647" y="1198"/>
      <point x="664" y="1235" type="qcurve"/>
      <point x="678" y="1272"/>
      <point x="696" y="1284" type="qcurve"/>
      <point x="725" y="1300"/>
      <point x="823" y="1309" type="qcurve"/>
      <point x="922" y="1317"/>
      <point x="1008" y="1323" type="qcurve"/>
      <point x="983" y="1229"/>
      <point x="975" y="989" type="qcurve"/>
      <point x="965" y="750"/>
      <point x="965" y="539" type="qcurve"/>
      <point x="962" y="330"/>
      <point x="997" y="-27" type="qcurve"/>
      <point x="1380" y="0" type="line"/>
      <point x="1350" y="303"/>
      <point x="1352" y="610" type="qcurve"/>
      <point x="1352" y="872"/>
      <point x="1374" y="1065" type="qcurve"/>
      <point x="1390" y="1255"/>
      <point x="1405" y="1341" type="qcurve" smooth="yes"/>
      <point x="1411" y="1378"/>
      <point x="1411" y="1405" type="qcurve" smooth="yes"/>
      <point x="1411" y="1427"/>
      <point x="1403" y="1442" type="qcurve"/>
      <point x="1393" y="1454"/>
      <point x="1380" y="1454" type="qcurve" smooth="yes"/>
      <point x="1329" y="1452"/>
      <point x="962" y="1429" type="qcurve"/>
      <point x="592" y="1407"/>
      <point x="287" y="1386" type="qcurve"/>
    </contour>
  </outline>
</glyph>
<glyph name="Oacute" format="1">
  <advance width="1075"/>
  <unicode hex="00D0"/>
  <unicode hex="0420"/>
  <outline>
    <contour>
      <point x="356" y="-1534" type="line"/>
      <point x="489" y="-1411" type="line"/>
      <point x="584" y="-1102"/>
      <point x="584" y="-608" type="qcurve"/>
      <point x="582" y="-291"/>
      <point x="549" y="-27" type="qcurve"/>
      <point x="618" y="-25"/>
      <point x="674" y="53" type="qcurve"/>
      <point x="725" y="129"/>
      <point x="762" y="246" type="qcurve"/>
      <point x="833" y="496"/>
      <point x="833" y="700" type="qcurve"/>
      <point x="831" y="1075"/>
      <point x="788" y="1280" type="qcurve"/>
      <point x="743" y="1483"/>
      <point x="696" y="1485" type="qcurve"/>
      <point x="631" y="1483"/>
      <point x="553" y="1419" type="qcurve" smooth="yes"/>
      <point x="475" y="1354"/>
      <point x="403" y="1243" type="qcurve"/>
      <point x="248" y="1014"/>
      <point x="242" y="739" type="qcurve"/>
      <point x="246" y="375"/>
      <point x="309" y="-23" type="qcurve" smooth="yes"/>
      <point x="371" y="-418"/>
      <point x="375" y="-846" type="qcurve"/>
      <point x="375" y="-1005"/>
      <point x="358" y="-1198" type="qcurve"/>
      <point x="338" y="-1395"/>
      <point x="291" y="-1519" type="qcurve"/>
    </contour>
    <contour>
      <point x="510" y="938" type="line"/>
      <point x="532" y="940"/>
      <point x="557" y="907" type="qcurve"/>
      <point x="582" y="872"/>
      <point x="604" y="813" type="qcurve"/>
      <point x="653" y="692"/>
      <point x="655" y="549" type="qcurve" smooth="yes"/>
      <point x="655" y="487"/>
      <point x="633" y="405" type="qcurve"/>
      <point x="620" y="367"/>
      <point x="596" y="338" type="qcurve" smooth="yes"/>
      <point x="571" y="307"/>
      <point x="530" y="297" type="qcurve"/>
      <point x="512" y="336"/>
      <point x="500" y="395" type="qcurve" smooth="yes"/>
      <point x="487" y="455"/>
      <point x="481" y="526" type="qcurve" smooth="yes"/>
      <point x="467" y="674"/>
      <point x="467" y="780" type="qcurve" smooth="yes"/>
      <point x="467" y="850"/>
      <point x="477" y="893" type="qcurve"/>
      <point x="485" y="938"/>
      <point x="510" y="938" type="qcurve"/>
    </contour>
  </outline>
</glyph>
<glyph name="macron" format="1">
  <advance width="1642"/>
  <unicode hex="00DA"/>
  <unicode hex="042a"/>
  <outline>
    <contour>
      <point x="37" y="790" type="line"/>
      <point x="213" y="807"/>
      <point x="301" y="827" type="qcurve"/>
      <point x="387" y="848"/>
      <point x="389" y="885" type="qcurve"/>
      <point x="414" y="1102"/>
      <point x="465" y="1221" type="qcurve"/>
      <point x="514" y="1339"/>
      <point x="639" y="1341" type="qcurve"/>
      <point x="704" y="1341"/>
      <point x="737" y="1333" type="qcurve"/>
      <point x="768" y="1323"/>
      <point x="768" y="1284" type="qcurve"/>
      <point x="766" y="1243"/>
      <point x="733" y="1151" type="qcurve"/>
      <point x="698" y="1059"/>
      <point x="649" y="915" type="qcurve"/>
      <point x="604" y="774"/>
      <point x="569" y="590" type="qcurve"/>
      <point x="530" y="403"/>
      <point x="530" y="172" type="qcurve" smooth="yes"/>
      <point x="530" y="115"/>
      <point x="543" y="80" type="qcurve"/>
      <point x="555" y="43"/>
      <point x="573" y="23" type="qcurve"/>
      <point x="612" y="-12"/>
      <point x="672" y="-10" type="qcurve"/>
      <point x="698" y="-8"/>
      <point x="731" y="-4" type="qcurve" smooth="yes"/>
      <point x="762" y="0"/>
      <point x="770" y="0" type="qcurve" smooth="yes"/>
      <point x="1477" y="0" type="line" smooth="yes"/>
      <point x="1569" y="0"/>
      <point x="1573" y="123" type="qcurve"/>
      <point x="1571" y="176"/>
      <point x="1489" y="448" type="qcurve"/>
      <point x="1448" y="571"/>
      <point x="1393" y="661" type="qcurve" smooth="yes"/>
      <point x="1364" y="707"/>
      <point x="1333" y="731" type="qcurve" smooth="yes"/>
      <point x="1302" y="756"/>
      <point x="1268" y="756" type="qcurve" smooth="yes"/>
      <point x="1241" y="756"/>
      <point x="1210" y="737" type="qcurve" smooth="yes"/>
      <point x="958" y="590" type="line"/>
      <point x="944" y="612"/>
      <point x="944" y="641" type="qcurve" smooth="yes"/>
      <point x="944" y="715"/>
      <point x="981" y="817" type="qcurve"/>
      <point x="1016" y="919"/>
      <point x="1067" y="1026" type="qcurve" smooth="yes"/>
      <point x="1173" y="1251"/>
      <point x="1237" y="1347" type="qcurve"/>
      <point x="1245" y="1362"/>
      <point x="1247" y="1378" type="qcurve"/>
      <point x="1247" y="1397"/>
      <point x="1241" y="1413" type="qcurve"/>
      <point x="1233" y="1429"/>
      <point x="1221" y="1429" type="qcurve"/>
      <point x="1092" y="1440"/>
      <point x="938" y="1440" type="qcurve"/>
      <point x="635" y="1433"/>
      <point x="248" y="1429" type="qcurve"/>
      <point x="174" y="1427"/>
      <point x="141" y="1352" type="qcurve"/>
      <point x="109" y="1276"/>
      <point x="98" y="1198" type="qcurve" smooth="yes"/>
    </contour>
    <contour>
      <point x="1044" y="88" type="line"/>
      <point x="987" y="90"/>
      <point x="958" y="162" type="qcurve"/>
      <point x="928" y="229"/>
      <point x="928" y="319" type="qcurve" smooth="yes"/>
      <point x="928" y="405"/>
      <point x="956" y="469" type="qcurve"/>
      <point x="981" y="530"/>
      <point x="1030" y="532" type="qcurve"/>
      <point x="1059" y="532"/>
      <point x="1083" y="510" type="qcurve"/>
      <point x="1106" y="487"/>
      <point x="1122" y="451" type="qcurve" smooth="yes"/>
      <point x="1157" y="371"/>
      <point x="1157" y="291" type="qcurve" smooth="yes"/>
      <point x="1157" y="213"/>
      <point x="1137" y="154" type="qcurve"/>
      <point x="1110" y="90"/>
      <point x="1044" y="88" type="qcurve"/>
    </contour>
  </outline>
</glyph>
<glyph name="cedilla" format="1">
  <advance width="1624"/>
  <unicode hex="00DE"/>
  <unicode hex="042e"/>
  <outline>
    <contour>
      <point x="221" y="1401" type="line"/>
      <point x="176" y="1237"/>
      <point x="176" y="651" type="qcurve"/>
      <point x="174" y="416"/>
      <point x="199" y="59" type="qcurve"/>
      <point x="203" y="20"/>
      <point x="223" y="-2" type="qcurve"/>
      <point x="242" y="-27"/>
      <point x="258" y="-27" type="qcurve" smooth="yes"/>
      <point x="338" y="-23"/>
      <point x="485" y="-4" type="qcurve" smooth="yes"/>
      <point x="532" y="2"/>
      <point x="547" y="18" type="qcurve"/>
      <point x="559" y="35"/>
      <point x="559" y="74" type="qcurve"/>
      <point x="545" y="358"/>
      <point x="539" y="692" type="qcurve"/>
      <point x="756" y="764"/>
      <point x="985" y="795" type="qcurve"/>
      <point x="997" y="92"/>
      <point x="1216" y="-27" type="qcurve"/>
      <point x="1278" y="-25"/>
      <point x="1327" y="63" type="qcurve" smooth="yes"/>
      <point x="1374" y="147"/>
      <point x="1407" y="274" type="qcurve"/>
      <point x="1472" y="549"/>
      <point x="1474" y="758" type="qcurve"/>
      <point x="1474" y="997"/>
      <point x="1417" y="1233" type="qcurve"/>
      <point x="1388" y="1343"/>
      <point x="1345" y="1413" type="qcurve"/>
      <point x="1302" y="1481"/>
      <point x="1247" y="1483" type="qcurve"/>
      <point x="1192" y="1481"/>
      <point x="1149" y="1433" type="qcurve" smooth="yes"/>
      <point x="1104" y="1384"/>
      <point x="1073" y="1302" type="qcurve" smooth="yes"/>
      <point x="1010" y="1132"/>
      <point x="991" y="948" type="qcurve"/>
      <point x="760" y="879"/>
      <point x="539" y="862" type="qcurve"/>
      <point x="545" y="1075"/>
      <point x="606" y="1345" type="qcurve" smooth="yes"/>
      <point x="612" y="1368"/>
      <point x="612" y="1390" type="qcurve" smooth="yes"/>
      <point x="612" y="1417"/>
      <point x="606" y="1436" type="qcurve"/>
      <point x="598" y="1454"/>
      <point x="580" y="1454" type="qcurve" smooth="yes"/>
      <point x="577" y="1454"/>
      <point x="510" y="1448" type="qcurve"/>
      <point x="440" y="1438"/>
      <point x="221" y="1401" type="qcurve"/>
    </contour>
    <contour>
      <point x="1331" y="391" type="line"/>
      <point x="1128" y="549"/>
      <point x="1130" y="891" type="qcurve" smooth="yes"/>
      <point x="1130" y="946"/>
      <point x="1139" y="981" type="qcurve" smooth="yes"/>
      <point x="1147" y="1016"/>
      <point x="1165" y="1016" type="qcurve"/>
      <point x="1192" y="1014"/>
      <point x="1223" y="973" type="qcurve"/>
      <point x="1253" y="930"/>
      <point x="1282" y="858" type="qcurve"/>
      <point x="1347" y="711"/>
      <point x="1352" y="541" type="qcurve"/>
      <point x="1352" y="463"/>
      <point x="1331" y="391" type="qcurve"/>
    </contour>
  </outline>
</glyph>
<glyph name="Scaron" format="1">
  <advance width="1108"/>
  <unicode hex="00E4"/>
  <unicode hex="0434"/>
  <outline>
    <contour>
      <point x="1071" y="43" type="line"/>
      <point x="1038" y="35"/>
      <point x="1012" y="35" type="qcurve" smooth="yes"/>
      <point x="930" y="37"/>
      <point x="897" y="102" type="qcurve" smooth="yes"/>
      <point x="864" y="166"/>
      <point x="866" y="240" type="qcurve"/>
      <point x="866" y="758" type="line" smooth="yes"/>
      <point x="866" y="795"/>
      <point x="879" y="856" type="qcurve"/>
      <point x="887" y="915"/>
      <point x="887" y="960" type="qcurve" smooth="yes"/>
      <point x="887" y="993"/>
      <point x="879" y="1003" type="qcurve"/>
      <point x="870" y="1010"/>
      <point x="848" y="1010" type="qcurve"/>
      <point x="821" y="1008"/>
      <point x="780" y="1008" type="qcurve" smooth="yes"/>
      <point x="678" y="1008" type="line"/>
      <point x="612" y="1005"/>
      <point x="590" y="952" type="qcurve"/>
      <point x="563" y="897"/>
      <point x="565" y="827" type="qcurve"/>
      <point x="571" y="756"/>
      <point x="575" y="651" type="qcurve"/>
      <point x="573" y="516"/>
      <point x="485" y="299" type="qcurve"/>
      <point x="442" y="201"/>
      <point x="381" y="133" type="qcurve" smooth="yes"/>
      <point x="350" y="98"/>
      <point x="315" y="80" type="qcurve"/>
      <point x="279" y="59"/>
      <point x="240" y="59" type="qcurve"/>
      <point x="121" y="66" type="line"/>
      <point x="63" y="66"/>
      <point x="41" y="55" type="qcurve" smooth="yes"/>
      <point x="18" y="43"/>
      <point x="16" y="33" type="qcurve"/>
      <point x="12" y="-43"/>
      <point x="12" y="-256" type="qcurve" smooth="yes"/>
      <point x="12" y="-352"/>
      <point x="23" y="-451" type="qcurve"/>
      <point x="31" y="-549"/>
      <point x="31" y="-688" type="qcurve" smooth="yes"/>
      <point x="31" y="-715"/>
      <point x="53" y="-731" type="qcurve"/>
      <point x="70" y="-747"/>
      <point x="84" y="-747" type="qcurve" smooth="yes"/>
      <point x="137" y="-745"/>
      <point x="258" y="-731" type="qcurve"/>
      <point x="287" y="-725"/>
      <point x="289" y="-684" type="qcurve"/>
      <point x="279" y="-463"/>
      <point x="272" y="-256" type="qcurve"/>
      <point x="272" y="-205"/>
      <point x="279" y="-162" type="qcurve"/>
      <point x="283" y="-121"/>
      <point x="297" y="-90" type="qcurve" smooth="yes"/>
      <point x="326" y="-25"/>
      <point x="420" y="-25" type="qcurve" smooth="yes"/>
      <point x="678" y="-25" type="line" smooth="yes"/>
      <point x="729" y="-25"/>
      <point x="745" y="-41" type="qcurve"/>
      <point x="758" y="-59"/>
      <point x="758" y="-82" type="qcurve" smooth="yes"/>
      <point x="758" y="-100"/>
      <point x="735" y="-170" type="qcurve"/>
      <point x="713" y="-244"/>
      <point x="680" y="-338" type="qcurve" smooth="yes"/>
      <point x="647" y="-432"/>
      <point x="625" y="-522" type="qcurve"/>
      <point x="598" y="-610"/>
      <point x="598" y="-661" type="qcurve"/>
      <point x="596" y="-723"/>
      <point x="645" y="-725" type="qcurve"/>
      <point x="674" y="-725"/>
      <point x="754" y="-702" type="qcurve" smooth="yes"/>
      <point x="790" y="-692"/>
      <point x="819" y="-678" type="qcurve" smooth="yes"/>
      <point x="846" y="-666"/>
      <point x="850" y="-651" type="qcurve"/>
      <point x="860" y="-584"/>
      <point x="913" y="-401" type="qcurve"/>
      <point x="967" y="-219"/>
      <point x="1083" y="-2" type="qcurve"/>
    </contour>
    <contour>
      <point x="567" y="305" type="line"/>
      <point x="575" y="303" type="line"/>
      <point x="575" y="84" type="line"/>
      <point x="565" y="72"/>
      <point x="549" y="70" type="qcurve"/>
      <point x="530" y="66"/>
      <point x="510" y="66" type="qcurve" smooth="yes"/>
      <point x="485" y="66"/>
      <point x="469" y="72" type="qcurve"/>
      <point x="453" y="74"/>
      <point x="453" y="92" type="qcurve" smooth="yes"/>
      <point x="455" y="133"/>
      <point x="498" y="197" type="qcurve" smooth="yes"/>
      <point x="539" y="258"/>
      <point x="567" y="305" type="qcurve"/>
    </contour>
  </outline>
</glyph>
<glyph name="scaron" format="1">
  <advance width="723"/>
  <unicode hex="00E5"/>
  <unicode hex="0435"/>
  <outline>
    <contour>
      <point x="365" y="592" type="line"/>
      <point x="358" y="631"/>
      <point x="358" y="661" type="qcurve" smooth="yes"/>
      <point x="360" y="758"/>
      <point x="422" y="795" type="qcurve"/>
      <point x="481" y="829"/>
      <point x="555" y="840" type="qcurve"/>
      <point x="616" y="860"/>
      <point x="614" y="977" type="qcurve" smooth="yes"/>
      <point x="614" y="1026"/>
      <point x="608" y="1038" type="qcurve"/>
      <point x="596" y="1046"/>
      <point x="551" y="1046" type="qcurve"/>
      <point x="422" y="1049"/>
      <point x="231" y="946" type="qcurve"/>
      <point x="154" y="897"/>
      <point x="121" y="827" type="qcurve"/>
      <point x="86" y="758"/>
      <point x="86" y="674" type="qcurve"/>
      <point x="90" y="408"/>
      <point x="195" y="195" type="qcurve"/>
      <point x="242" y="92"/>
      <point x="293" y="33" type="qcurve"/>
      <point x="344" y="-31"/>
      <point x="385" y="-33" type="qcurve"/>
      <point x="465" y="-31"/>
      <point x="551" y="25" type="qcurve" smooth="yes"/>
      <point x="592" y="51"/>
      <point x="616" y="88" type="qcurve"/>
      <point x="641" y="123"/>
      <point x="641" y="164" type="qcurve" smooth="yes"/>
      <point x="641" y="192"/>
      <point x="629" y="213" type="qcurve"/>
      <point x="612" y="231"/>
      <point x="588" y="231" type="qcurve"/>
      <point x="565" y="227"/>
      <point x="534" y="225" type="qcurve"/>
      <point x="442" y="225"/>
      <point x="405" y="391" type="qcurve"/>
      <point x="410" y="418" type="line"/>
      <point x="440" y="436"/>
      <point x="481" y="451" type="qcurve"/>
      <point x="518" y="463"/>
      <point x="553" y="475" type="qcurve"/>
      <point x="571" y="485"/>
      <point x="580" y="524" type="qcurve"/>
      <point x="586" y="559"/>
      <point x="586" y="598" type="qcurve" smooth="yes"/>
      <point x="586" y="641"/>
      <point x="580" y="651" type="qcurve"/>
      <point x="573" y="657"/>
      <point x="553" y="657" type="qcurve" smooth="yes"/>
      <point x="528" y="657"/>
      <point x="471" y="637" type="qcurve"/>
      <point x="412" y="618"/>
      <point x="365" y="592" type="qcurve"/>
    </contour>
  </outline>
</glyph>
<glyph name="eth" format="1">
  <advance width="1272"/>
  <unicode hex="00EA"/>
  <unicode hex="043a"/>
  <outline>
    <contour>
      <point x="168" y="958" type="line"/>
      <point x="160" y="922"/>
      <point x="154" y="876" type="qcurve"/>
      <point x="147" y="831"/>
      <point x="141" y="768" type="qcurve"/>
      <point x="133" y="645"/>
      <point x="133" y="367" type="qcurve" smooth="yes"/>
      <point x="133" y="190"/>
      <point x="147" y="86" type="qcurve"/>
      <point x="156" y="35"/>
      <point x="168" y="6" type="qcurve" smooth="yes"/>
      <point x="180" y="-25"/>
      <point x="197" y="-25" type="qcurve" smooth="yes"/>
      <point x="250" y="-23"/>
      <point x="399" y="-6" type="qcurve" smooth="yes"/>
      <point x="424" y="-4"/>
      <point x="426" y="39" type="qcurve"/>
      <point x="416" y="233"/>
      <point x="412" y="471" type="qcurve"/>
      <point x="410" y="709"/>
      <point x="461" y="919" type="qcurve" smooth="yes"/>
      <point x="465" y="936"/>
      <point x="467" y="960" type="qcurve"/>
      <point x="467" y="977"/>
      <point x="463" y="987" type="qcurve"/>
      <point x="457" y="997"/>
      <point x="444" y="997" type="qcurve"/>
      <point x="459" y="999"/>
      <point x="168" y="958" type="qcurve"/>
    </contour>
    <contour>
      <point x="534" y="541" type="line"/>
      <point x="534" y="526"/>
      <point x="561" y="496" type="qcurve"/>
      <point x="582" y="463"/>
      <point x="596" y="436" type="qcurve" smooth="yes"/>
      <point x="655" y="324"/>
      <point x="688" y="209" type="qcurve" smooth="yes"/>
      <point x="721" y="94"/>
      <point x="745" y="-6" type="qcurve"/>
      <point x="758" y="-20"/>
      <point x="768" y="-25" type="qcurve"/>
      <point x="1038" y="-8" type="line"/>
      <point x="1053" y="-6"/>
      <point x="1053" y="8" type="qcurve" smooth="yes"/>
      <point x="1053" y="47"/>
      <point x="969" y="305" type="qcurve"/>
      <point x="926" y="420"/>
      <point x="864" y="508" type="qcurve" smooth="yes"/>
      <point x="803" y="596"/>
      <point x="721" y="598" type="qcurve"/>
      <point x="661" y="596"/>
      <point x="661" y="623" type="qcurve" smooth="yes"/>
      <point x="661" y="647"/>
      <point x="684" y="682" type="qcurve" smooth="yes"/>
      <point x="707" y="717"/>
      <point x="739" y="747" type="qcurve" smooth="yes"/>
      <point x="774" y="780"/>
      <point x="815" y="803" type="qcurve"/>
      <point x="854" y="823"/>
      <point x="891" y="823" type="qcurve" smooth="yes"/>
      <point x="919" y="823"/>
      <point x="940" y="819" type="qcurve"/>
      <point x="958" y="813"/>
      <point x="975" y="805" type="qcurve"/>
      <point x="993" y="799"/>
      <point x="1020" y="793" type="qcurve"/>
      <point x="1046" y="784"/>
      <point x="1092" y="784" type="qcurve" smooth="yes"/>
      <point x="1120" y="784"/>
      <point x="1151" y="809" type="qcurve"/>
      <point x="1180" y="831"/>
      <point x="1206" y="864" type="qcurve"/>
      <point x="1235" y="899"/>
      <point x="1251" y="930" type="qcurve"/>
      <point x="1268" y="960"/>
      <point x="1268" y="977" type="qcurve" smooth="yes"/>
      <point x="1268" y="993"/>
      <point x="1251" y="995" type="qcurve"/>
      <point x="1231" y="993"/>
      <point x="1206" y="979" type="qcurve"/>
      <point x="1184" y="962"/>
      <point x="1147" y="962" type="qcurve" smooth="yes"/>
      <point x="1096" y="962"/>
      <point x="1049" y="983" type="qcurve"/>
      <point x="1001" y="999"/>
      <point x="944" y="1001" type="qcurve"/>
      <point x="879" y="1001"/>
      <point x="829" y="971" type="qcurve" smooth="yes"/>
      <point x="778" y="940"/>
      <point x="735" y="883" type="qcurve"/>
      <point x="678" y="813"/>
      <point x="610" y="711" type="qcurve"/>
      <point x="580" y="661"/>
      <point x="557" y="616" type="qcurve" smooth="yes"/>
      <point x="534" y="573"/>
      <point x="534" y="541" type="qcurve"/>
    </contour>
  </outline>
</glyph>
<glyph name="minus" format="1">
  <advance width="1227"/>
  <unicode hex="00EF"/>
  <unicode hex="043f"/>
  <outline>
    <contour>
      <point x="219" y="960" type="line"/>
      <point x="131" y="590"/>
      <point x="133" y="192" type="qcurve" smooth="yes"/>
      <point x="133" y="68"/>
      <point x="147" y="-23" type="qcurve"/>
      <point x="440" y="6" type="line"/>
      <point x="440" y="219" type="line"/>
      <point x="442" y="594"/>
      <point x="530" y="905" type="qcurve"/>
      <point x="782" y="926" type="line"/>
      <point x="756" y="715"/>
      <point x="758" y="414" type="qcurve"/>
      <point x="756" y="203"/>
      <point x="770" y="88" type="qcurve" smooth="yes"/>
      <point x="784" y="-27"/>
      <point x="829" y="-29" type="qcurve"/>
      <point x="903" y="-27"/>
      <point x="1073" y="-6" type="qcurve"/>
      <point x="1040" y="324"/>
      <point x="1038" y="510" type="qcurve"/>
      <point x="1038" y="741"/>
      <point x="1081" y="897" type="qcurve" smooth="yes"/>
      <point x="1096" y="950"/>
      <point x="1096" y="969" type="qcurve" smooth="yes"/>
      <point x="1096" y="1010"/>
      <point x="1069" y="1012" type="qcurve"/>
      <point x="803" y="1008"/>
      <point x="219" y="960" type="qcurve"/>
    </contour>
  </outline>
</glyph>
<glyph name="twosuperior" format="1">
  <advance width="1427"/>
  <unicode hex="00F2"/>
  <unicode hex="0442"/>
  <outline>
    <contour>
      <point x="971" y="919" type="line"/>
      <point x="995" y="919" type="line"/>
      <point x="1079" y="917"/>
      <point x="1120" y="879" type="qcurve"/>
      <point x="1159" y="840"/>
      <point x="1173" y="788" type="qcurve"/>
      <point x="1188" y="737"/>
      <point x="1196" y="698" type="qcurve"/>
      <point x="1202" y="653"/>
      <point x="1218" y="653" type="qcurve" smooth="yes"/>
      <point x="1261" y="653"/>
      <point x="1307" y="686" type="qcurve" smooth="yes"/>
      <point x="1350" y="717"/>
      <point x="1395" y="764" type="qcurve" smooth="yes"/>
      <point x="1411" y="780"/>
      <point x="1417" y="817" type="qcurve" smooth="yes"/>
      <point x="1423" y="852"/>
      <point x="1423" y="891" type="qcurve" smooth="yes"/>
      <point x="1423" y="936"/>
      <point x="1411" y="973" type="qcurve"/>
      <point x="1395" y="1008"/>
      <point x="1341" y="1010" type="qcurve"/>
      <point x="1257" y="1010"/>
      <point x="1184" y="1005" type="qcurve"/>
      <point x="1106" y="1001"/>
      <point x="1083" y="1001" type="qcurve" smooth="yes"/>
      <point x="526" y="1010"/>
      <point x="326" y="1016" type="qcurve"/>
      <point x="217" y="1018"/>
      <point x="170" y="1001" type="qcurve" smooth="yes"/>
      <point x="123" y="983"/>
      <point x="115" y="909" type="qcurve"/>
      <point x="102" y="743"/>
      <point x="102" y="573" type="qcurve" smooth="yes"/>
      <point x="102" y="504"/>
      <point x="113" y="432" type="qcurve" smooth="yes"/>
      <point x="119" y="399"/>
      <point x="131" y="377" type="qcurve"/>
      <point x="141" y="352"/>
      <point x="160" y="352" type="qcurve" smooth="yes"/>
      <point x="180" y="352"/>
      <point x="250" y="367" type="qcurve"/>
      <point x="317" y="379"/>
      <point x="375" y="389" type="qcurve"/>
      <point x="385" y="410" type="line"/>
      <point x="373" y="494"/>
      <point x="373" y="573" type="qcurve"/>
      <point x="371" y="725"/>
      <point x="385" y="838" type="qcurve"/>
      <point x="391" y="907"/>
      <point x="432" y="926" type="qcurve"/>
      <point x="471" y="940"/>
      <point x="563" y="938" type="qcurve" smooth="yes"/>
      <point x="604" y="938"/>
      <point x="633" y="930" type="qcurve" smooth="yes"/>
      <point x="659" y="922"/>
      <point x="664" y="897" type="qcurve"/>
      <point x="655" y="870"/>
      <point x="649" y="723" type="qcurve" smooth="yes"/>
      <point x="643" y="575"/>
      <point x="643" y="350" type="qcurve" smooth="yes"/>
      <point x="643" y="176"/>
      <point x="659" y="80" type="qcurve"/>
      <point x="668" y="33"/>
      <point x="680" y="8" type="qcurve" smooth="yes"/>
      <point x="692" y="-16"/>
      <point x="711" y="-18" type="qcurve"/>
      <point x="770" y="-16"/>
      <point x="922" y="0" type="qcurve"/>
      <point x="940" y="4"/>
      <point x="948" y="20" type="qcurve" smooth="yes"/>
      <point x="954" y="33"/>
      <point x="954" y="49" type="qcurve" smooth="yes"/>
      <point x="954" y="82"/>
      <point x="940" y="279" type="qcurve"/>
      <point x="924" y="473"/>
      <point x="924" y="543" type="qcurve" smooth="yes"/>
      <point x="924" y="729"/>
      <point x="971" y="919" type="qcurve"/>
    </contour>
  </outline>
</glyph>
<glyph name="franc" format="1">
  <advance width="950"/>
  <unicode hex="00F7"/>
  <unicode hex="0447"/>
  <outline>
    <contour>
      <point x="446" y="0" type="line"/>
      <point x="752" y="0" type="line"/>
      <point x="739" y="111"/>
      <point x="739" y="221" type="qcurve"/>
      <point x="743" y="633"/>
      <point x="872" y="907" type="qcurve" smooth="yes"/>
      <point x="883" y="930"/>
      <point x="893" y="948" type="qcurve"/>
      <point x="901" y="965"/>
      <point x="901" y="975" type="qcurve" smooth="yes"/>
      <point x="903" y="1001"/>
      <point x="844" y="1001" type="qcurve" smooth="yes"/>
      <point x="700" y="1001"/>
      <point x="629" y="991" type="qcurve"/>
      <point x="588" y="983"/>
      <point x="577" y="940" type="qcurve"/>
      <point x="567" y="895"/>
      <point x="565" y="838" type="qcurve" smooth="yes"/>
      <point x="563" y="784"/>
      <point x="553" y="741" type="qcurve"/>
      <point x="539" y="696"/>
      <point x="491" y="696" type="qcurve"/>
      <point x="405" y="694"/>
      <point x="352" y="1001" type="qcurve"/>
      <point x="51" y="991" type="line"/>
      <point x="78" y="926"/>
      <point x="96" y="858" type="qcurve"/>
      <point x="117" y="788"/>
      <point x="145" y="729" type="qcurve"/>
      <point x="178" y="670"/>
      <point x="236" y="635" type="qcurve"/>
      <point x="293" y="596"/>
      <point x="393" y="596" type="qcurve" smooth="yes"/>
      <point x="430" y="596"/>
      <point x="459" y="602" type="qcurve"/>
      <point x="485" y="606"/>
      <point x="498" y="606" type="qcurve"/>
      <point x="518" y="604"/>
      <point x="518" y="584" type="qcurve"/>
      <point x="516" y="561"/>
      <point x="487" y="365" type="qcurve" smooth="yes"/>
      <point x="457" y="168"/>
      <point x="446" y="0" type="qcurve"/>
    </contour>
  </outline>
</glyph>
<glyph name="Gbreve" format="1">
  <advance width="1794"/>
  <unicode hex="00F8"/>
  <unicode hex="0448"/>
  <outline>
    <contour>
      <point x="225" y="960" type="line"/>
      <point x="137" y="588"/>
      <point x="139" y="192" type="qcurve" smooth="yes"/>
      <point x="139" y="68"/>
      <point x="154" y="-23" type="qcurve"/>
      <point x="1100" y="-33"/>
      <point x="1567" y="-41" type="qcurve" smooth="yes"/>
      <point x="1642" y="-43"/>
      <point x="1644" y="31" type="qcurve"/>
      <point x="1634" y="272"/>
      <point x="1628" y="530" type="qcurve"/>
      <point x="1628" y="733"/>
      <point x="1681" y="940" type="qcurve" smooth="yes"/>
      <point x="1685" y="956"/>
      <point x="1685" y="971" type="qcurve" smooth="yes"/>
      <point x="1685" y="987"/>
      <point x="1681" y="999" type="qcurve"/>
      <point x="1675" y="1012"/>
      <point x="1661" y="1012" type="qcurve" smooth="yes"/>
      <point x="1636" y="1012"/>
      <point x="1382" y="973" type="qcurve"/>
      <point x="1372" y="940"/>
      <point x="1362" y="819" type="qcurve"/>
      <point x="1347" y="696"/>
      <point x="1347" y="453" type="qcurve" smooth="yes"/>
      <point x="1347" y="379"/>
      <point x="1352" y="260" type="qcurve"/>
      <point x="1354" y="137"/>
      <point x="1362" y="68" type="qcurve"/>
      <point x="1325" y="41"/>
      <point x="1245" y="39" type="qcurve"/>
      <point x="1167" y="39"/>
      <point x="1063" y="72" type="qcurve"/>
      <point x="1042" y="342"/>
      <point x="1040" y="473" type="qcurve" smooth="yes"/>
      <point x="1038" y="557"/>
      <point x="1067" y="930" type="qcurve"/>
      <point x="1071" y="950"/>
      <point x="1071" y="969" type="qcurve" smooth="yes"/>
      <point x="1071" y="985"/>
      <point x="1049" y="987" type="qcurve"/>
      <point x="997" y="981" type="line"/>
      <point x="946" y="971"/>
      <point x="764" y="938" type="qcurve"/>
      <point x="745" y="790"/>
      <point x="743" y="442" type="qcurve"/>
      <point x="745" y="246"/>
      <point x="762" y="72" type="qcurve"/>
      <point x="752" y="61"/>
      <point x="682" y="51" type="qcurve"/>
      <point x="612" y="39"/>
      <point x="543" y="39" type="qcurve" smooth="yes"/>
      <point x="502" y="39"/>
      <point x="477" y="47" type="qcurve"/>
      <point x="446" y="53"/>
      <point x="446" y="70" type="qcurve" smooth="yes"/>
      <point x="448" y="451"/>
      <point x="491" y="655" type="qcurve"/>
      <point x="512" y="760"/>
      <point x="524" y="825" type="qcurve"/>
      <point x="537" y="889"/>
      <point x="537" y="922" type="qcurve" smooth="yes"/>
      <point x="537" y="979"/>
      <point x="487" y="979" type="qcurve"/>
      <point x="412" y="977"/>
      <point x="225" y="960" type="qcurve"/>
    </contour>
  </outline>
</glyph>
<glyph name="Idotaccent" format="1">
  <advance width="1290"/>
  <unicode hex="00FA"/>
  <unicode hex="044a"/>
  <outline>
    <contour>
      <point x="37" y="553" type="line"/>
      <point x="113" y="567"/>
      <point x="205" y="573" type="qcurve"/>
      <point x="250" y="580"/>
      <point x="279" y="588" type="qcurve"/>
      <point x="307" y="598"/>
      <point x="311" y="612" type="qcurve" smooth="yes"/>
      <point x="324" y="666"/>
      <point x="332" y="721" type="qcurve" smooth="yes"/>
      <point x="340" y="778"/>
      <point x="358" y="827" type="qcurve" smooth="yes"/>
      <point x="377" y="879"/>
      <point x="412" y="909" type="qcurve"/>
      <point x="444" y="940"/>
      <point x="506" y="940" type="qcurve" smooth="yes"/>
      <point x="553" y="940"/>
      <point x="580" y="936" type="qcurve"/>
      <point x="606" y="928"/>
      <point x="606" y="899" type="qcurve" smooth="yes"/>
      <point x="606" y="872"/>
      <point x="580" y="807" type="qcurve"/>
      <point x="551" y="739"/>
      <point x="516" y="641" type="qcurve"/>
      <point x="428" y="440"/>
      <point x="422" y="119" type="qcurve"/>
      <point x="422" y="45"/>
      <point x="453" y="18" type="qcurve"/>
      <point x="481" y="-8"/>
      <point x="530" y="-8" type="qcurve"/>
      <point x="571" y="-6"/>
      <point x="608" y="0" type="qcurve"/>
      <point x="1157" y="0" type="line" smooth="yes"/>
      <point x="1229" y="0"/>
      <point x="1233" y="86" type="qcurve"/>
      <point x="1231" y="125"/>
      <point x="1167" y="313" type="qcurve" smooth="yes"/>
      <point x="1137" y="399"/>
      <point x="1094" y="463" type="qcurve"/>
      <point x="1071" y="494"/>
      <point x="1046" y="512" type="qcurve"/>
      <point x="1022" y="528"/>
      <point x="995" y="528" type="qcurve" smooth="yes"/>
      <point x="975" y="528"/>
      <point x="950" y="516" type="qcurve"/>
      <point x="752" y="412" type="line"/>
      <point x="741" y="422"/>
      <point x="741" y="440" type="qcurve" smooth="yes"/>
      <point x="741" y="451"/>
      <point x="750" y="494" type="qcurve"/>
      <point x="780" y="620"/>
      <point x="848" y="737" type="qcurve"/>
      <point x="913" y="852"/>
      <point x="977" y="952" type="qcurve" smooth="yes"/>
      <point x="983" y="962"/>
      <point x="983" y="969" type="qcurve" smooth="yes"/>
      <point x="981" y="995"/>
      <point x="936" y="1003" type="qcurve"/>
      <point x="887" y="1010"/>
      <point x="829" y="1010" type="qcurve"/>
      <point x="584" y="1003"/>
      <point x="203" y="1001" type="qcurve"/>
      <point x="145" y="999"/>
      <point x="121" y="946" type="qcurve"/>
      <point x="94" y="893"/>
      <point x="86" y="838" type="qcurve"/>
    </contour>
    <contour>
      <point x="821" y="61" type="line"/>
      <point x="776" y="61"/>
      <point x="754" y="113" type="qcurve"/>
      <point x="729" y="162"/>
      <point x="729" y="225" type="qcurve" smooth="yes"/>
      <point x="729" y="285"/>
      <point x="752" y="330" type="qcurve"/>
      <point x="770" y="371"/>
      <point x="809" y="373" type="qcurve"/>
      <point x="856" y="371"/>
      <point x="883" y="315" type="qcurve" smooth="yes"/>
      <point x="909" y="260"/>
      <point x="909" y="192" type="qcurve" smooth="yes"/>
      <point x="909" y="141"/>
      <point x="889" y="102" type="qcurve" smooth="yes"/>
      <point x="868" y="61"/>
      <point x="821" y="61" type="qcurve"/>
    </contour>
  </outline>
</glyph>
<glyph name="Scedilla" format="1">
  <advance width="1450"/>
  <unicode hex="00FB"/>
  <unicode hex="044b"/>
  <outline>
    <contour>
      <point x="590" y="969" type="line"/>
      <point x="590" y="989"/>
      <point x="573" y="1001" type="qcurve"/>
      <point x="553" y="1012"/>
      <point x="502" y="1012" type="qcurve"/>
      <point x="414" y="1010"/>
      <point x="354" y="999" type="qcurve"/>
      <point x="299" y="991"/>
      <point x="258" y="938" type="qcurve" smooth="yes"/>
      <point x="217" y="885"/>
      <point x="205" y="817" type="qcurve"/>
      <point x="174" y="664"/>
      <point x="141" y="446" type="qcurve"/>
      <point x="106" y="231"/>
      <point x="104" y="119" type="qcurve"/>
      <point x="104" y="45"/>
      <point x="135" y="18" type="qcurve" smooth="yes"/>
      <point x="164" y="-8"/>
      <point x="213" y="-8" type="qcurve"/>
      <point x="254" y="-6"/>
      <point x="291" y="0" type="qcurve"/>
      <point x="840" y="0" type="line" smooth="yes"/>
      <point x="911" y="0"/>
      <point x="915" y="86" type="qcurve"/>
      <point x="913" y="125"/>
      <point x="850" y="313" type="qcurve"/>
      <point x="819" y="399"/>
      <point x="776" y="463" type="qcurve" smooth="yes"/>
      <point x="754" y="494"/>
      <point x="729" y="512" type="qcurve"/>
      <point x="704" y="528"/>
      <point x="678" y="528" type="qcurve" smooth="yes"/>
      <point x="657" y="528"/>
      <point x="633" y="516" type="qcurve" smooth="yes"/>
      <point x="434" y="412" type="line"/>
      <point x="420" y="418"/>
      <point x="418" y="438" type="qcurve"/>
      <point x="418" y="514"/>
      <point x="440" y="606" type="qcurve"/>
      <point x="459" y="696"/>
      <point x="475" y="758" type="qcurve"/>
      <point x="516" y="907"/>
      <point x="590" y="969" type="qcurve"/>
    </contour>
    <contour>
      <point x="504" y="61" type="line"/>
      <point x="459" y="61"/>
      <point x="436" y="113" type="qcurve"/>
      <point x="412" y="162"/>
      <point x="412" y="225" type="qcurve" smooth="yes"/>
      <point x="412" y="285"/>
      <point x="434" y="330" type="qcurve" smooth="yes"/>
      <point x="453" y="371"/>
      <point x="491" y="373" type="qcurve"/>
      <point x="539" y="371"/>
      <point x="565" y="315" type="qcurve"/>
      <point x="592" y="260"/>
      <point x="592" y="192" type="qcurve" smooth="yes"/>
      <point x="592" y="141"/>
      <point x="571" y="102" type="qcurve"/>
      <point x="551" y="61"/>
      <point x="504" y="61" type="qcurve"/>
    </contour>
    <contour>
      <point x="1075" y="958" type="line"/>
      <point x="1067" y="922"/>
      <point x="1061" y="876" type="qcurve" smooth="yes"/>
      <point x="1055" y="831"/>
      <point x="1049" y="768" type="qcurve"/>
      <point x="1040" y="645"/>
      <point x="1040" y="367" type="qcurve" smooth="yes"/>
      <point x="1040" y="190"/>
      <point x="1055" y="86" type="qcurve" smooth="yes"/>
      <point x="1063" y="35"/>
      <point x="1075" y="6" type="qcurve" smooth="yes"/>
      <point x="1087" y="-25"/>
      <point x="1104" y="-25" type="qcurve" smooth="yes"/>
      <point x="1157" y="-23"/>
      <point x="1307" y="-6" type="qcurve" smooth="yes"/>
      <point x="1331" y="-4"/>
      <point x="1333" y="39" type="qcurve"/>
      <point x="1323" y="233"/>
      <point x="1319" y="471" type="qcurve"/>
      <point x="1317" y="709"/>
      <point x="1368" y="919" type="qcurve" smooth="yes"/>
      <point x="1372" y="936"/>
      <point x="1374" y="960" type="qcurve"/>
      <point x="1374" y="977"/>
      <point x="1370" y="987" type="qcurve"/>
      <point x="1364" y="997"/>
      <point x="1352" y="997" type="qcurve"/>
      <point x="1366" y="999"/>
      <point x="1075" y="958" type="qcurve"/>
    </contour>
  </outline>
</glyph>
<glyph name="cacute" format="1">
  <advance width="1255"/>
  <unicode hex="00FE"/>
  <unicode hex="044e"/>
  <outline>
    <contour>
      <point x="162" y="958" type="line"/>
      <point x="154" y="922"/>
      <point x="147" y="876" type="qcurve" smooth="yes"/>
      <point x="141" y="831"/>
      <point x="135" y="768" type="qcurve"/>
      <point x="127" y="645"/>
      <point x="127" y="367" type="qcurve" smooth="yes"/>
      <point x="127" y="190"/>
      <point x="141" y="86" type="qcurve"/>
      <point x="149" y="35"/>
      <point x="162" y="6" type="qcurve"/>
      <point x="174" y="-25"/>
      <point x="190" y="-25" type="qcurve" smooth="yes"/>
      <point x="244" y="-23"/>
      <point x="393" y="-6" type="qcurve"/>
      <point x="420" y="-4"/>
      <point x="420" y="41" type="qcurve"/>
      <point x="410" y="252"/>
      <point x="405" y="451" type="qcurve" smooth="yes"/>
      <point x="405" y="475"/>
      <point x="451" y="494" type="qcurve"/>
      <point x="491" y="512"/>
      <point x="549" y="522" type="qcurve" smooth="yes"/>
      <point x="676" y="543"/>
      <point x="731" y="549" type="qcurve"/>
      <point x="741" y="408"/>
      <point x="790" y="199" type="qcurve"/>
      <point x="815" y="104"/>
      <point x="850" y="37" type="qcurve"/>
      <point x="868" y="6"/>
      <point x="887" y="-12" type="qcurve"/>
      <point x="905" y="-31"/>
      <point x="924" y="-33" type="qcurve"/>
      <point x="969" y="-31"/>
      <point x="1005" y="31" type="qcurve"/>
      <point x="1042" y="88"/>
      <point x="1067" y="176" type="qcurve" smooth="yes"/>
      <point x="1120" y="367"/>
      <point x="1120" y="512" type="qcurve"/>
      <point x="1118" y="692"/>
      <point x="1065" y="856" type="qcurve"/>
      <point x="1038" y="934"/>
      <point x="1003" y="981" type="qcurve" smooth="yes"/>
      <point x="967" y="1028"/>
      <point x="924" y="1030" type="qcurve"/>
      <point x="883" y="1030"/>
      <point x="852" y="995" type="qcurve"/>
      <point x="819" y="960"/>
      <point x="795" y="905" type="qcurve"/>
      <point x="747" y="786"/>
      <point x="735" y="657" type="qcurve"/>
      <point x="577" y="608"/>
      <point x="408" y="596" type="qcurve"/>
      <point x="416" y="758"/>
      <point x="455" y="919" type="qcurve" smooth="yes"/>
      <point x="459" y="936"/>
      <point x="461" y="960" type="qcurve"/>
      <point x="461" y="977"/>
      <point x="457" y="987" type="qcurve"/>
      <point x="451" y="997"/>
      <point x="438" y="997" type="qcurve" smooth="yes"/>
      <point x="430" y="997"/>
      <point x="162" y="958" type="qcurve"/>
    </contour>
    <contour>
      <point x="997" y="264" type="line"/>
      <point x="854" y="365"/>
      <point x="854" y="616" type="qcurve" smooth="yes"/>
      <point x="854" y="655"/>
      <point x="860" y="680" type="qcurve" smooth="yes"/>
      <point x="866" y="702"/>
      <point x="879" y="702" type="qcurve" smooth="yes"/>
      <point x="895" y="702"/>
      <point x="919" y="674" type="qcurve"/>
      <point x="942" y="643"/>
      <point x="962" y="594" type="qcurve"/>
      <point x="1012" y="489"/>
      <point x="1014" y="373" type="qcurve" smooth="yes"/>
      <point x="1014" y="317"/>
      <point x="997" y="264" type="qcurve"/>
    </contour>
  </outline>
</glyph>
<glyph name="registered" format="1">
  <advance width="1780"/>
  <unicode hex="0160"/>
  <unicode hex="0409"/>
  <outline>
    <contour>
      <point x="123" y="-14" type="line"/>
      <point x="516" y="0" type="line"/>
      <point x="522" y="23"/>
      <point x="522" y="45" type="qcurve" smooth="yes"/>
      <point x="520" y="109"/>
      <point x="494" y="170" type="qcurve"/>
      <point x="463" y="231"/>
      <point x="461" y="291" type="qcurve"/>
      <point x="461" y="362"/>
      <point x="485" y="440" type="qcurve"/>
      <point x="506" y="518"/>
      <point x="537" y="584" type="qcurve"/>
      <point x="569" y="649"/>
      <point x="600" y="690" type="qcurve"/>
      <point x="629" y="731"/>
      <point x="649" y="731" type="qcurve"/>
      <point x="664" y="729"/>
      <point x="668" y="704" type="qcurve" smooth="yes"/>
      <point x="768" y="98" type="line"/>
      <point x="780" y="35"/>
      <point x="813" y="18" type="qcurve" smooth="yes"/>
      <point x="846" y="0"/>
      <point x="901" y="0" type="qcurve" smooth="yes"/>
      <point x="1599" y="0" type="line" smooth="yes"/>
      <point x="1685" y="0"/>
      <point x="1687" y="129" type="qcurve"/>
      <point x="1685" y="225"/>
      <point x="1608" y="475" type="qcurve"/>
      <point x="1571" y="590"/>
      <point x="1515" y="670" type="qcurve"/>
      <point x="1489" y="711"/>
      <point x="1458" y="731" type="qcurve"/>
      <point x="1427" y="754"/>
      <point x="1393" y="754" type="qcurve" smooth="yes"/>
      <point x="1366" y="754"/>
      <point x="1333" y="737" type="qcurve" smooth="yes"/>
      <point x="1036" y="586" type="line"/>
      <point x="1036" y="586" type="line"/>
      <point x="1022" y="616"/>
      <point x="1001" y="737" type="qcurve" smooth="yes"/>
      <point x="979" y="858"/>
      <point x="977" y="1055" type="qcurve" smooth="yes"/>
      <point x="975" y="1186"/>
      <point x="1010" y="1345" type="qcurve"/>
      <point x="1018" y="1370"/>
      <point x="1020" y="1395" type="qcurve"/>
      <point x="1020" y="1411"/>
      <point x="1012" y="1421" type="qcurve"/>
      <point x="1001" y="1429"/>
      <point x="977" y="1429" type="qcurve" smooth="yes"/>
      <point x="664" y="1429" type="line"/>
      <point x="625" y="1427"/>
      <point x="612" y="1393" type="qcurve" smooth="yes"/>
      <point x="598" y="1358"/>
      <point x="598" y="1302" type="qcurve" smooth="yes"/>
      <point x="598" y="1245"/>
      <point x="606" y="1188" type="qcurve"/>
      <point x="612" y="1128"/>
      <point x="612" y="1085" type="qcurve"/>
      <point x="610" y="1016"/>
      <point x="534" y="895" type="qcurve" smooth="yes"/>
      <point x="457" y="774"/>
      <point x="354" y="623" type="qcurve" smooth="yes"/>
      <point x="252" y="473"/>
      <point x="174" y="313" type="qcurve"/>
      <point x="94" y="152"/>
      <point x="92" y="0" type="qcurve"/>
    </contour>
    <contour>
      <point x="1221" y="96" type="line"/>
      <point x="1163" y="98"/>
      <point x="1135" y="170" type="qcurve"/>
      <point x="1104" y="238"/>
      <point x="1104" y="328" type="qcurve" smooth="yes"/>
      <point x="1104" y="414"/>
      <point x="1132" y="477" type="qcurve"/>
      <point x="1157" y="539"/>
      <point x="1206" y="541" type="qcurve"/>
      <point x="1235" y="541"/>
      <point x="1259" y="518" type="qcurve" smooth="yes"/>
      <point x="1282" y="496"/>
      <point x="1298" y="459" type="qcurve" smooth="yes"/>
      <point x="1333" y="379"/>
      <point x="1333" y="299" type="qcurve" smooth="yes"/>
      <point x="1333" y="221"/>
      <point x="1313" y="162" type="qcurve"/>
      <point x="1286" y="98"/>
      <point x="1221" y="96" type="qcurve"/>
    </contour>
  </outline>
</glyph>
<glyph name="yen" format="1">
  <advance width="756"/>
  <unicode hex="2013"/>
  <outline>
    <contour>
      <point x="25" y="612" type="line"/>
      <point x="41" y="586" type="line"/>
      <point x="82" y="571"/>
      <point x="229" y="573" type="qcurve" smooth="yes"/>
      <point x="448" y="575"/>
      <point x="596" y="577" type="qcurve" smooth="yes"/>
      <point x="614" y="577"/>
      <point x="635" y="600" type="qcurve"/>
      <point x="653" y="618"/>
      <point x="670" y="647" type="qcurve" smooth="yes"/>
      <point x="704" y="709"/>
      <point x="707" y="760" type="qcurve"/>
      <point x="707" y="793"/>
      <point x="680" y="795" type="qcurve"/>
      <point x="383" y="797"/>
      <point x="156" y="799" type="qcurve" smooth="yes"/>
      <point x="135" y="799"/>
      <point x="104" y="786" type="qcurve"/>
      <point x="74" y="770"/>
      <point x="61" y="745" type="qcurve"/>
    </contour>
  </outline>
</glyph>
<glyph name="infinity" format="1">
  <advance width="545"/>
  <unicode hex="2019"/>
  <outline>
    <contour>
      <point x="94" y="1915" type="line"/>
      <point x="141" y="1943"/>
      <point x="186" y="1943" type="qcurve" smooth="yes"/>
      <point x="297" y="1941"/>
      <point x="301" y="1802" type="qcurve"/>
      <point x="301" y="1712"/>
      <point x="199" y="1552" type="qcurve"/>
      <point x="231" y="1524" type="line"/>
      <point x="534" y="1653"/>
      <point x="541" y="1915" type="qcurve"/>
      <point x="539" y="2019"/>
      <point x="465" y="2072" type="qcurve"/>
      <point x="430" y="2099"/>
      <point x="387" y="2111" type="qcurve" smooth="yes"/>
      <point x="344" y="2124"/>
      <point x="299" y="2124" type="qcurve" smooth="yes"/>
      <point x="205" y="2122"/>
      <point x="139" y="2087" type="qcurve"/>
      <point x="76" y="2052"/>
      <point x="35" y="1997" type="qcurve"/>
    </contour>
  </outline>
</glyph>
<glyph name="dagger" format="1">
  <advance width="645"/>
  <unicode hex="201A"/>
  <outline>
    <contour>
      <point x="184" y="2" type="line"/>
      <point x="231" y="31"/>
      <point x="276" y="31" type="qcurve" smooth="yes"/>
      <point x="387" y="29"/>
      <point x="391" y="-111" type="qcurve"/>
      <point x="391" y="-201"/>
      <point x="289" y="-360" type="qcurve"/>
      <point x="322" y="-389" type="line"/>
      <point x="625" y="-260"/>
      <point x="631" y="2" type="qcurve"/>
      <point x="629" y="106"/>
      <point x="555" y="160" type="qcurve" smooth="yes"/>
      <point x="520" y="186"/>
      <point x="477" y="199" type="qcurve" smooth="yes"/>
      <point x="434" y="211"/>
      <point x="389" y="211" type="qcurve" smooth="yes"/>
      <point x="295" y="209"/>
      <point x="229" y="174" type="qcurve"/>
      <point x="166" y="139"/>
      <point x="125" y="84" type="qcurve"/>
    </contour>
  </outline>
</glyph>
<glyph name="greaterequal" format="1">
  <advance width="635"/>
  <unicode hex="2022"/>
  <outline>
    <contour>
      <point x="602" y="2218" type="line"/>
      <point x="588" y="2228"/>
      <point x="569" y="2228" type="qcurve" smooth="yes"/>
      <point x="524" y="2228"/>
      <point x="446" y="2189" type="qcurve"/>
      <point x="367" y="2152"/>
      <point x="285" y="2089" type="qcurve" smooth="yes"/>
      <point x="203" y="2027"/>
      <point x="147" y="1958" type="qcurve" smooth="yes"/>
      <point x="121" y="1925"/>
      <point x="104" y="1890" type="qcurve" smooth="yes"/>
      <point x="86" y="1853"/>
      <point x="86" y="1821" type="qcurve" smooth="yes"/>
      <point x="88" y="1743"/>
      <point x="145" y="1692" type="qcurve" smooth="yes"/>
      <point x="172" y="1667"/>
      <point x="197" y="1644" type="qcurve"/>
      <point x="219" y="1622"/>
      <point x="236" y="1603" type="qcurve"/>
      <point x="207" y="1563"/>
      <point x="141" y="1528" type="qcurve"/>
      <point x="76" y="1495"/>
      <point x="18" y="1472" type="qcurve"/>
      <point x="10" y="1438" type="line"/>
      <point x="49" y="1393" type="line"/>
      <point x="61" y="1382"/>
      <point x="84" y="1382" type="qcurve" smooth="yes"/>
      <point x="131" y="1382"/>
      <point x="213" y="1431" type="qcurve"/>
      <point x="293" y="1477"/>
      <point x="375" y="1544" type="qcurve"/>
      <point x="459" y="1614"/>
      <point x="516" y="1683" type="qcurve"/>
      <point x="571" y="1753"/>
      <point x="573" y="1800" type="qcurve"/>
      <point x="573" y="1833"/>
      <point x="551" y="1859" type="qcurve"/>
      <point x="528" y="1884"/>
      <point x="496" y="1907" type="qcurve" smooth="yes"/>
      <point x="463" y="1931"/>
      <point x="434" y="1956" type="qcurve" smooth="yes"/>
      <point x="405" y="1980"/>
      <point x="391" y="2007" type="qcurve"/>
      <point x="444" y="2062"/>
      <point x="489" y="2093" type="qcurve" smooth="yes"/>
      <point x="532" y="2122"/>
      <point x="608" y="2152" type="qcurve"/>
      <point x="620" y="2171" type="line"/>
    </contour>
  </outline>
</glyph>
<glyph name="copyright" format="1">
  <advance width="690"/>
  <unicode hex="2039"/>
  <outline>
    <contour>
      <point x="614" y="879" type="line"/>
      <point x="530" y="938" type="line"/>
      <point x="530" y="938" type="line"/>
      <point x="442" y="821"/>
      <point x="354" y="764" type="qcurve"/>
      <point x="266" y="704"/>
      <point x="170" y="649" type="qcurve"/>
      <point x="154" y="641"/>
      <point x="147" y="641" type="qcurve"/>
      <point x="141" y="643"/>
      <point x="131" y="645" type="qcurve"/>
      <point x="115" y="643"/>
      <point x="102" y="623" type="qcurve"/>
      <point x="25" y="477" type="line"/>
      <point x="160" y="389"/>
      <point x="317" y="258" type="qcurve" smooth="yes"/>
      <point x="393" y="195"/>
      <point x="446" y="141" type="qcurve"/>
      <point x="500" y="84"/>
      <point x="520" y="49" type="qcurve"/>
      <point x="520" y="49" type="line"/>
      <point x="584" y="125"/>
      <point x="645" y="203" type="qcurve"/>
      <point x="653" y="209"/>
      <point x="653" y="219" type="qcurve" smooth="yes"/>
      <point x="653" y="227"/>
      <point x="645" y="233" type="qcurve"/>
      <point x="561" y="328"/>
      <point x="434" y="440" type="qcurve"/>
      <point x="305" y="551"/>
      <point x="248" y="580" type="qcurve"/>
      <point x="344" y="633"/>
      <point x="440" y="690" type="qcurve" smooth="yes"/>
      <point x="532" y="745"/>
      <point x="616" y="844" type="qcurve"/>
    </contour>
  </outline>
</glyph>
